<mxfile host="app.diagrams.net" modified="2024-02-01T23:04:41.194Z" agent="Mozilla/5.0 (Windows NT 10.0; Win64; x64) AppleWebKit/537.36 (KHTML, like Gecko) Chrome/121.0.0.0 Safari/537.36" etag="8rdTUN-umG3OUGTLOrxt" version="22.1.21" type="device">
  <diagram name="Seite-1" id="57MIGAi54vFVZHuPPA6Q">
    <mxGraphModel dx="2074" dy="664" grid="1" gridSize="10" guides="1" tooltips="1" connect="1" arrows="1" fold="1" page="1" pageScale="1" pageWidth="827" pageHeight="1169" math="0" shadow="0">
      <root>
        <mxCell id="0" />
        <mxCell id="1" parent="0" />
        <mxCell id="C71Xn33zCeiyV5jr0XYg-1" value="" style="strokeWidth=1;shadow=0;dashed=0;align=center;html=1;shape=mxgraph.mockup.containers.browserWindow;rSize=0;strokeColor=#666666;strokeColor2=#008cff;strokeColor3=#c4c4c4;mainText=,;recursiveResize=0;" vertex="1" parent="1">
          <mxGeometry width="1450" height="1560" as="geometry" />
        </mxCell>
        <mxCell id="C71Xn33zCeiyV5jr0XYg-2" value="Page 1" style="strokeWidth=1;shadow=0;dashed=0;align=center;html=1;shape=mxgraph.mockup.containers.anchor;fontSize=17;fontColor=#666666;align=left;whiteSpace=wrap;" vertex="1" parent="C71Xn33zCeiyV5jr0XYg-1">
          <mxGeometry x="60" y="12" width="110" height="26" as="geometry" />
        </mxCell>
        <mxCell id="C71Xn33zCeiyV5jr0XYg-3" value="https://www.intelligrade.com" style="strokeWidth=1;shadow=0;dashed=0;align=center;html=1;shape=mxgraph.mockup.containers.anchor;rSize=0;fontSize=17;fontColor=#666666;align=left;" vertex="1" parent="C71Xn33zCeiyV5jr0XYg-1">
          <mxGeometry x="130" y="60" width="250" height="26" as="geometry" />
        </mxCell>
        <mxCell id="C71Xn33zCeiyV5jr0XYg-5" value="" style="shape=image;verticalLabelPosition=bottom;labelBackgroundColor=default;verticalAlign=top;aspect=fixed;imageAspect=0;image=data:image/png,iVBORw0KGgoAAAANSUhEUgAAAfQAAAH0CAYAAADL1t+KAAAACXBIWXMAAA7EAAAOxAGVKw4bAAAAO3RFWHRDb21tZW50AHhyOmQ6REFGNjA4cVpJeGs6NSxqOjUwMTA2NzExMDc2NTU4NTcyOTcsdDoyNDAxMjQxORe6HmUAAATuaVRYdFhNTDpjb20uYWRvYmUueG1wAAAAAAA8eDp4bXBtZXRhIHhtbG5zOng9J2Fkb2JlOm5zOm1ldGEvJz4KICAgICAgICA8cmRmOlJERiB4bWxuczpyZGY9J2h0dHA6Ly93d3cudzMub3JnLzE5OTkvMDIvMjItcmRmLXN5bnRheC1ucyMnPgoKICAgICAgICA8cmRmOkRlc2NyaXB0aW9uIHJkZjphYm91dD0nJwogICAgICAgIHhtbG5zOmRjPSdodHRwOi8vcHVybC5vcmcvZGMvZWxlbWVudHMvMS4xLyc+CiAgICAgICAgPGRjOnRpdGxlPgogICAgICAgIDxyZGY6QWx0PgogICAgICAgIDxyZGY6bGkgeG1sOmxhbmc9J3gtZGVmYXVsdCc+RGVzaWduIG9obmUgVGl0ZWwgLSAxPC9yZGY6bGk+CiAgICAgICAgPC9yZGY6QWx0PgogICAgICAgIDwvZGM6dGl0bGU+CiAgICAgICAgPC9yZGY6RGVzY3JpcHRpb24+CgogICAgICAgIDxyZGY6RGVzY3JpcHRpb24gcmRmOmFib3V0PScnCiAgICAgICAgeG1sbnM6QXR0cmliPSdodHRwOi8vbnMuYXR0cmlidXRpb24uY29tL2Fkcy8xLjAvJz4KICAgICAgICA8QXR0cmliOkFkcz4KICAgICAgICA8cmRmOlNlcT4KICAgICAgICA8cmRmOmxpIHJkZjpwYXJzZVR5cGU9J1Jlc291cmNlJz4KICAgICAgICA8QXR0cmliOkNyZWF0ZWQ+MjAyNC0wMS0yNDwvQXR0cmliOkNyZWF0ZWQ+CiAgICAgICAgPEF0dHJpYjpFeHRJZD41ZjRkOTAxZS1lYjkwLTRlNjctYjA4OC0wMDc4ZjVhYTNlZmI8L0F0dHJpYjpFeHRJZD4KICAgICAgICA8QXR0cmliOkZiSWQ+NTI1MjY1OTE0MTc5NTgwPC9BdHRyaWI6RmJJZD4KICAgICAgICA8QXR0cmliOlRvdWNoVHlwZT4yPC9BdHRyaWI6VG91Y2hUeXBlPgogICAgICAgIDwvcmRmOmxpPgogICAgICAgIDwvcmRmOlNlcT4KICAgICAgICA8L0F0dHJpYjpBZHM+CiAgICAgICAgPC9yZGY6RGVzY3JpcHRpb24+CgogICAgICAgIDxyZGY6RGVzY3JpcHRpb24gcmRmOmFib3V0PScnCiAgICAgICAgeG1sbnM6cGRmPSdodHRwOi8vbnMuYWRvYmUuY29tL3BkZi8xLjMvJz4KICAgICAgICA8cGRmOkF1dGhvcj5PbGl2aWVyIEzDvHRoeTwvcGRmOkF1dGhvcj4KICAgICAgICA8L3JkZjpEZXNjcmlwdGlvbj4KCiAgICAgICAgPHJkZjpEZXNjcmlwdGlvbiByZGY6YWJvdXQ9JycKICAgICAgICB4bWxuczp4bXA9J2h0dHA6Ly9ucy5hZG9iZS5jb20veGFwLzEuMC8nPgogICAgICAgIDx4bXA6Q3JlYXRvclRvb2w+Q2FudmE8L3htcDpDcmVhdG9yVG9vbD4KICAgICAgICA8L3JkZjpEZXNjcmlwdGlvbj4KICAgICAgICAKICAgICAgICA8L3JkZjpSREY+CiAgICAgICAgPC94OnhtcG1ldGE+GfF4rwAAjBRJREFUeJzsnUma5CCyhM1VfZ+3eMu+/7FS3gtmBJpCAyD7v8qKzNAsAYYPIPm///+vghBCCCFdM719AoQQQgj5HQo6IYQQMgAUdEIIIWQAKOiEEELIAFDQCSGEkAGgoBNCCCEDQEEnhBBCBoCCTgghhAwABZ0QQggZAAo6IYQQMgAUdEIIIWQA/vP2CRBCbkQBhXldg0AAefl8CCG3QUEnZGgU0Nl8iEAwUdQJGRS63AkZFQVUZyvo5keNyU4IGRAKOiEjogrVPyvkCqvuwPxHUSdkUCjohIyGamSZx8ptRZ2WOiFDwhg6ISOhClUn3E6xM+XW2XzKBAbUCRkHCjoho6CwYj4H0V6Y4c4yn6EABP+o6YQMAgWdkBFQQOGEfN6zMoyoM/OdkFGgoBPSO26s+WzFXKMF6xsB+LOWugBCVSekZyjohPSME3OdEUR6b7ZbbKlPnHiGkM6hoBPSK7GYx8PTDu5EdYbYLel+J6RfKOiE9IgX878oo/3cODShqBMyBBR0QnrjQjF3CEBRJ6RzKOiE9ESczX6RmLsdC8QPd6OoE9IfFHRCesAmu/lx5qiNM//5IBR1QjqFgk5I65TE/FA2+/ED0v1OSH9Q0AlpmWImu11wIyZR7o+iTkhHUNAJaZGFVX5lvHwfAvhjU9QJaR8KOiGt4RPfnIjf7WLfPBlwRjlC2oeCTkgrxFZ5IugARKN1XjgxL+r/jJFOUSekOSjohLRAycWOTMyBistb0vee79XaQ52DWNQn636nqBPSEhR0QhrBiPkfwvCxA3Oyn9HW2jbVw5oOR0iU46tXCWmJ6e0TIIS4tLOKku7RdQXWdnEIQVWoTaKcCQWot9oJIS1AQSekAaSkovGfzya4p+dQFHc94EEghDwBBZ2QVhABZEJQ0IKSKsrW+JWu73jf1GxCuoExdEJaQJyVPtn8OJcY5yLWFbZE/ajolw6Vfyf2PybFEdIUFHRCWkIEgn9Q96IUmQHdEPWc2qqXxNdNpwPTBKGgE9IUFHRCWkPMrGxGxwW7J5a52z3uQgJih60RQpqCgk5IiwggOkH9GPQbZ4vbdABIJObCKWAJaRQKOiGtIoCoQMVZw1eLuovR14/v09xlgriEPYo5IU1CvxkhLSOAiBgxlRXL+JTI2o1qiXOaiblQzAlpGQo6IV0QiXppcPhVE8okf2diTghpGgo6IT3gh4r9A6YpcodfuX/YjkGU/JaMiyeEtAwFnZBecGPV5R9wZWJavB+R1DJnzJyQbqCgE9ITXtQnmOp7tdoyZk5IrzDLnZDecOPUAYTXmv4QRHebWuucMXNC+oSCTkiPJKL+97uoR5PG0CwnpE/ociekV+yQNniL+qwQ2+lcMXHSGEI6hhY6IV1jXOTGNj858YxPgmPMnJCeoYVOSM/Y4WshI/2gpZ6IOdWckJ6hoBPSOwKTzDb9QxhmtkecjaudY80JGQMKOiHDEA9n27lu0gkghPQMY+iEjEKS+Q7zPvViPD1+DSrFnJBRoKATMhJ24hnFhDBGHUjerObHm1PMCRkJutwJGQ0v1vEEMeZT85ngCCHDQEEnZEhC5rtCoDBiLtOUCT0hZBTocidkRATmfebTBFHreneudvrZCRkSCjohoyKA6AQVjV7q8vZJEULugoJOyMg4ISeEDA9j6IQQQsgAUNAJIYSQAaCgE0IIIQNAQSeEEEIGgIJOCCGEDAAFnRBCCBkACjohhBAyABR0QgghZAA4sQwhhIxI/OZczi30CWihE0LIaCigUKjO0OQ1umRkKOiEEDIYCoXOM1RngKL+GehyJ4SQgVBVwAo5YF+0h9m8Npe+96GhoBNCyChYMdd5hjPJxVrmCjVyLhT1UaHLnRBCekfNj3rLXJcLMVvrnb73UaGgE0LIAKjOwGxFG4A4i9yvYP5jPH1cKOiEENIz1jLX+c+71cUrdsFSV4r6qFDQCSGkVzI3u1grfHsjZr6PCAWdEEJ6JBZznYOY10Q6979T1IeDgk4IIb1hJ46B2rHm7kssf13fCd3vI8Fhaz1RqnfCkaWEfAon5vOftdA31Hi1gZgBnaACiLIx6R0KekcogFkVsypEALG1T/xvBg4zJWRQcjHHDg1Wu5L7XDADKlCZKOqdQ0HvBNUg5maOZrfAZrT6eigQdaIui7pJsSekU6KYuRfz02PK8ze3WPc9Rb1rKOgdodFP+MYPLwUQ6qGo+U+ib/2y7G8HxZ6QRknEXENHfg9HTHiKetdQ0DvBCLlNYMFaDstS5F2FFfuriKaibuuuKi16QpojSYD7Yaa3Yl3Ov3SiLhCdKOqdQUHvAFOHQ0bcWnWuj1hxU044d31YU9SKuxV6QXDZxzukuBPyMEnM3HTrxfXMo48F1bqab1AKrJu2RkVpqXcGBb0TYle7WHleY1lFa472YNO7jn9oLzQR92JsnvWdkNswYj4HMQeQVtT7jkz3e39Q0DshONtLNUsqf8VdgC3cGmlXQa2QIzl6sORRScCjNU/IjyjCOPHSVK55Xlv+XYZUFqfmQcFap5p3AwW9A/LZHNNKWbO4ncSuW/LLpbL4LRF4bxyk3QuJ4/TJ92msnhByABGIutesWHGV6yaCyeurJgJOMe8NCnrjuPh56J/nlWyr0jmbOhbgfZU0dAyWSxJ7YSHyYrNwjaVeG0JHDnLzhF7sdDWGnexFxfjDNK1shgsLRDp6RqIf0gsU9A4oW+RLaS6lu7h1gq2+dMjvOX7Nqb8cRGd/yzPsBQBjcfvYEO7FHT8g9LL4I5Sj3BNUWZU8iQCCyYi6TYxbPkOs9OvrD217ifC5dwYFvQPWEuD2NOSR3Zyw3snXxV9LUa8f3c1kN4lAXECdDcNixJFGC1KvR6mjVNhu88t13KRE5WXZb1l/zDT2Zc8LcyguxFnq0z/IDKjO3u+WoNnve59Bsm5kMAgt9N6goDeMH6l2kau15kJfpsFsRenjJct1xVrkk3UVfq1xL4u2Jt9r9F8h3Wm1rb6SklW+7OilQ6Riq83MVFYQfK0LPq2+E3j3+2STUWckTyqvirLY3H/muu9/kVjMJ2MC8Dl1BQW9ecJUMnpR7Vqp99G3WxJSTqebYCxykXg8+5jst7bjp5hucGdM/Cy7nnwSyl0TfCRCH4d+ltb+6VP+Bs79bv8MlvpWfbU3NrPay1tQzHuGgt449Umh8oj47okgC3sJLNyskQVZq98+fUZkaKs8t2ZDwxrEOv7dLHvo5F6iGg6ITD+JVnLCHeY0QBCPeL0By88lRKJuLHWFV+qV7Pd1D7wT78mEx3jzu4WC3jCmqirKMXTBHrE9c8y1ZSX3qYuVm3j5RSfSEE6UY9e5+s94xezvWghycJHPWYR2ncfCW/RqNUVs7oX51jFimfqJxFLPXp9avFdrck4xHwkKeqO4ISp7Lbx9q20725csI+zxkmkwqzy2Lp3F7TpWuWAv7vnRW/oxYXfUEvrUWfMC/xYxETuxURSLH6Gc/Uzmfg8x9fVCVY6ZWzGnj717KOgN44UEwG+VreYY3b/P3KE/IWSw9xwrXwh4JNzxa2pv0d6PC7ujbMEbRNULvHPNU+At1quhmFLX+/KOFrYtiPlX7+NAUNBb5rakqT011zQESdKT/SaxzDtsBPJs80TEvUV+5wnYzw7v3RPUBT624OHd8+E9BR9MrnMVcJqAecZayV0usS72HisxKUJBb5RUVNbS0WoVOO6tH62wuhByc7Q0Vt5bMxBb2z4G/oSA57jH8nHLfC9x/8d5VFwnzHiH1HuKIBJi870V0JMIzHA20/MpFyoBoBL/JRCZ0F8tJmtQ0JslTYZbb/tLlfKomK8fYYrEvDfvnEte8+L9hoiX2A55kog4PAIE7Vb7nxd3n88hfr2hEdiJZyZgjtx6NlyxWNkOTeuuIpNNKOgNohp+7Df2sybcNY7X1lIWe5z41kMbULTEgcWQslehmP+MF/ho1JtLJjUu+SjuPnrMXQDRCSpqE+Q0uVB1K1kx5zjzMaGgN0pZeq4Pvq7Z8T1lsQdXbCbihex00hhHinXcEYo+vTs52lcq7pWYe8Nl+jB2+Jm5yCie7iu42GRCivmoUNAb5ikRKk1Jk2SxN1z/m4mL76XJk3qZKwpXdl+TULJY70wp5j6YW97E040lrtHQP9ejESf4ZEgo6A3iLcvo73N7AbZqb/pa1X6s8ljIZ1UUJ3ppjaZPrlHyYnziHsahZFdOfHK4T/IeRNgF8OPTk6FsE8X8A1DQG0R1z/jnmqO85KaX4vJlvDzKYkebjVvsSlc1Yg5QK4ckH79WIC+ia2M+zPp2/Ib94i+Ot4tgGkHYbQdFpslY6TKZjPaer4nsgoLeGLGVWR+AEn8mW+84wjIby4i3eDd7ayG2JD6uihmNJbiRc6wNwjj5YLdyDTNPfJR3AYgq1LnjNUqka6ky7MQNZXN1u8drIMehoDdIef72X2pk3HKm72xr2cWexMcjIaeID8Be1d2xm7L/6eC2vsPorHVEk9d0aLVH500x/w4U9MbIx9pevOcE42IHJt+Tv+O4x1nGxynkQ7H1IA8O6TtSLnLxL3WbXchL7Hl0HWfv6VzJz1DQGyLO0E7ZWyvXW8J4L/FEMS01UC7kMKtixv6X0yT7QD222tClfpO1FI8be2x+nPrGOvHaLqzzpza+LoBMkg/xJqQZKOiNUR5wtRZszElFfZn4Bv/e8qkhF3ss5HnG+tHgQ21MPXmYRcAa5T7nA66XWoduvfsbjTSxIR/50zCUs+MYOxkTCnpjlIdeHW0xypZ6yGJHE/HyONlteNf6kBe1QknM8+8bYL0KLEXdda3TyWoo7KQNKOiNkMxshjUbez+xUeTEvIXXnR5NdmtYD/bR5Umf5KJkt6v4vZgv97AQ9inUMQo7eRMKekOUJa1m6tT3kmex529Je5N4XvWjWeu5C76LdvNLYl7jpXtwX/kIMXYFILOZTHaaAPfGmLfrGfkmFPSGWJ/prBT9W88mammiGOden6HmhVAHXevXdHX2r3sJXxHzBq/z/mcc3PGm3ip0Vp+fggZCWuR7UNAbwVmt7vdArVUofy9YWuXA+y52l7G+nNntgRRn8hne1FD3Gtc/CUPdpAGvGPkOFPQGcBK3ngxXsi+X0h/Glr87UUxIeFP/iualVX5MzGtrH8n/J2Px3jMtl1lT7m1GfJw4R2EnD0BBbwENbrvFgtLKEUnimx+K9q6LfX+cPFjrR6R97bKaiK8fGWVIOmK/Fykkztn4OoAuJ6YhXUFBbwlFeK/zglTy8gx2aSBW7rLXV+PkEtaLrwHYbi63dFKz31+5DbXB8yPSwDU+85y3LrQ+oVPqhjcxdsbXyV1Q0Bshlb5c4mpinia9Qd4zDJ2HYY7i5Yt1/H/h77si6Gwvb6YBMXesncq9me7u6OslWQGImrohNr6OiUPcyPVQ0BvAzYxWrtxLMXdxcmeZv22Vh4lhyu8kVzs+VxZj7FH8mzTOcA9sbbxE7WLLne3NI7j4us2I59h1ciUU9Aaoz1ceXHl59norQr4WJy+5wO8U87rj8yGGE7oKr9/ou3jIeR+9/GVyFZtueHIBFPSXCbOmleUvda+3lL3uXqAShtt5Fon4Zcs8Xn1PlPIXbo+1DilwfVArP/ufd23NPQ/1+IP3tdu54SefLkdrnfwEBb0Byo1R+LaVN6PZ/J4kVl5NxLfxfN1Q6zgxbm042t7sdbaFD9BY5+WZ0zmT7bGxjQIqCp3d0DbFNE0QjpIgJ6GgN4EmIgi05V4H9iW9lTfct9h5HmsuebesFLncc1tuu3WNidttNHqdz3v/jxxRl39KukQiD515ffKMaXrXC0f6hYLeChK53QT+1aby8tjVNFbu3oiWrVRo446+x3zP6vFhao6BeF0yPs/3M246ohV7VcUcTyHLCWnIASjoDeDi406+/XuW0YJV7mLlmVW+pa4XkV9+fNjcan+cRq3WL3HXsMclFx1hbTde1GGy4cXE1xlbJ3uhoDeAe5mD4+0euctjK04QszOILSGKcLgpPOJCz/f/2K37kpg3eq1S+f36Izx4AzR8KBQyg29xI7uhoL9MaxXUudQXVnlsIkSZ64s2L2r7Sg3uVU3j2c7CZQf/Ag1eZ2PV5RiFSrCaA2I703+qmCbjglfG1skKFHTi0dgqRz7ZjSTWg4gYC8ItcyZ5gZoltZbVfoRH27cGRe5yvnCNVUqlcq3UniDrie5J7NTZuuAFZpY5ijopQEEn9cS3UgAbUXukZlhaPMTu7IibI9u81pZ9Wujep+Tl6U7XzpQhVz9tB3qa1frh2/PwkXehoH+cYuLbmlGSm9tW1PNFe3jNZd4xl4UuSs+0g4fx/BC1H46+c/Xd9SYaOiqYw4teDu2EjMz09gmQ96iKeXnt5MMgP4tBbfx5dtTV7X84fEeon4vAWGU/XHFpsH/DNzDvX3ajXTtO9PC1qK23s5ofl7Da8PMjz0EL/aOExLcsi319q+SjtPTKxjbPsyvte23ZpbyWfVd2lZhO0NV3vE1K/Y/njnyiy3hw1TNPUG3CnNiEOUzTB0oC2YKC/jGqWex+heA/9zJvTeg7G4ydo+FObfszr1o/5uCC1FL1VpmbJ7SmPWzlD7IybOMmfumWKWAmosHMiWgIBf1LrE4Uc1HLf1Xm+qvD0uKTaAa1Mwdm2q3RN6XzbeoaWuHGHs/T99s9+jmbiIai/kko6B8hEXPnYi8MSQsb4LC3sSTAvzqFf7HcR0GgyXX6xyKAqMt9/ob7fVR+stJ9pVNghs2MYrLcF6Ggf4BkfPkiXp6LuRZ/3Usp4rsnzp3bTE20Q6+7CNIZ8cyPC4NIJOaOsUX9mcdx8ggNeELUxWHcO1kn4ZvbPgaz3AcniHlkmadrVH5fR7KfvVvX1rl46o6h8NntSVKcFr8nL9DQ7TcZ8MA8z9B5Zgb8x6CFPjD1KVxj7CxvwGbF39PZ3zvMbIvascbOai9jrnXp7xDBMqlxYCt9K0Xg3FUPer80S5ZjXP0TUNAHxDXysZinMfO4ITQLW6zse6z5Rw/8GHFme0iGc2PRwzpCz0bEeWn+MQXzoljAFfkmGp2KqBprfTKuWM4DPz50uQ9GnPz25+Lm+Truv7j2N6AGpbbm8UlFGrgPS4LApw8NEHHjCXOx/ybHrjwPGvVPejXGhaOzecc6tDBMlQwFLfTBWGSy5wuxbL7usoTPuNdr24zT5MbUHMZiY+SpdZ7nO0i0bthbnNEw5l1z1Azj7StfK2U7FC8/wIUi+VO2O0r1yIo6gNm9ihUyetH4LLTQB2LWXMydLKxztG7vab9+jbU/Su6teJxSFys8wdT6zjGi71aQbNk2TT2Jw+TJmY/b213cPjOSRdVY6kpLfVhooQ9AcYx5WHrtsaLPg8PU+2j7GsAL005lSkcanLHx+rTmS4by+Rj6/Zs8QT1pVN0/kyw3TWCi3HhQ0DtnS8yvrK/FWPzKuluC30Sb+OpJ1IIfsX8lX5avb9zE7v30UMkcx32K9V5KZdJcv7uHF/qKHiortz4xb507/ztFfSQo6B2zLubXczRs2IRgd4pE4r7W3hoZlx+t9LFa9PWasCcAVVins8K8LAFZN28GElHHYgPSIYyhd8yTYl7jTMxyrLziq7AWpZYmjFl/uj7OLtF+Cvs+cz49kMfOnVW+HNT39W5oej90BvRvPvC2RdI6FPROWSbAGUrN1lrO19mKHLvTf20M1iaQ+QbR1WYJyHtngYvj7ulENCvH8lturdM2efnWnR2h3Tt15u5wvVA7R8XfbN+t/vb5kF+hy70zFm9Mc9/n6+3cX60539N2nZlPozSmvHS84drOKuEOptO5nrsHAkClFEsflRA1ry8/uLsLdtMKZdd7vNQK+Wzf6jIxpt4ztNA7YhEzt43Mm21NSYhrYtRUO/HqMLX4JFLSMedHTjAdt7600o/sqydztCzmcuYaXi8P17LdMY9SLlWhSku9dyjouWut0cLsTq0WM/+1+Y33d3ZfXUhAM884PYkrrPOwr61jNnEDbiONnXdRKhe88YR0BtT8N3oRGZbvutw1/GKG+9g/BRC1TWpDbYF/0YoV86UAi814rlMbJFVadoTatkf2efvgqqYbqNjt/hsChYotC7rmJxlpOFtupad5/gr49w8dHqoxPPG9U2AWzFBMk+0YjVJEPsL3BF1tddfZ/YGkZiugIgAmCKYmCnTy1rTScuxPnqoeA79NR1LrHJTa0Xwfa8svofGGO51IZs/cfjXMEwnZ3gq3x3SddP0+iUtOLXSxshmJCPdQoZDZ/kVR745vCboCitn5lsKXhfVg5dOI+nsluvQK1CPZ6ltCeuhcCvutdzDWj791DpdITQeNd3yffh9qFm3rymwH92A/e0t+LFCVVRrn+RYnFXXM9us3Rf0qF+KH+I6ge8vc/ixqeW5vmkxhM2nHOwXaifnfyXGie095z3pHj78lyLe2sc034KlHyM3F7saT77+Ash85jMMO3+2bM7AFi/26Vrz5YvAAx56oLTm2fdSXRV39ucBfiPc/vV1MG+VDSXHWze5c7fky/xk1qGq2eWPaBVXjI7hDzGtXv3f9Pdv8Qguy8gQuEz22zs9dd7mDOgmQlu3WOVoyyS34yQzsi1xmfd7T4ZvgGfP8B53/oPNsMvFdqJTFY8FnLHTNxTqzkjwSfSnWDaUzgH+PqYwT89KkMT/t98fljjhqmUdnj3gFjoYJdtFsJS+HdmLrXA61UusBC/dSVVOEr8iyuJsrzy6qN6mB1w2vnK/Gx3U11N5L++5VeerExCQyKgQSeVVNnqcAkwAy0WLP+Iagey3fIeYLcY+3ub/UBDE3s8GVWBNDt3yx3wvObY0zLnnH2HVxK1PgKqldjmEQmElCNFG3rbvdqvTtv0e1qPpXOfpEF+urJnO/PybqgHnpUFyIratAZyfwdiIcmYJL/sMP+xuCDmC/ZZ5to0Y+9YFyEiaOMbHz6nqV739JgDsrKWuZCI/TnAlaPyFnaIRx53XrvJyAuPSTLDt6JVE/et4dt47NlYfGWRSg6Itc1B86H7GVxIj6HJb5GIBAFRAx7i6164tLCu24+J7hQ4KesSdcp/kf95WOeBY4ta1vfsQjbuq7Y9xvbv/cTu8kjZ2vredwbnRE35TXjL+R8KIXLfkC3uqC7T1udw/2Ml55Mm5whEYOSt+jNKIuUOhTU8QKvECrFlpA11aqi18BIpPpALi/P+SW/1BSXMSZNuKBdmU5ccyYJTDvpIzL+tU5y3x/7Px4IZSk41A7zpHY/R38eGyt/BDP5u0op3gsl9kpYp+cTU6cOBeqU5JMamPt6pPo/oB59gbSF8rENyx05990M8DtfbKJV/Ne67w8pWtfrzU8cocuvZtN3KTU/b2GqJ1zXY6d+L6hZ4XjwbaHh9q1ks9Hos/l2R1/qjc8uAPV+2usPqF8gb+PLjE4rOPi148NZ/MFeEI8SikW88Ujtx0OFYVghop98Yzr3g5qSXxD0GHdlSIHK7v4wnTX8w8TxzTqym6Rpi808VEulrqEomA5r12MRv+fLYFuaxdL39/xyPeRfkph+ZF9ke6IRd1k75rBPw8kGDkrPdSF9XLkPVK+EzubGfDETRT23vwid/IZQfcZSDoB+Nu3icI//DuevM9oR9zQntzXNafUPl1c6Jot5F7CEjdKmwkclxCX4u3m8Gxc6oUWcuN0B2uzX6Acu1bAiPokz2S+i5jhatnwn11dVHe+OoeYfCzsmzvog+/E0KOMyVo8Jt/AeOinnesfw4WgTNinL9d6zH3dnd4pWOfQ4PTBWhTnaoG3LlKJj3mFP6iRYHV+CjsKYyNnvklz55jH02c1E77cfVwxnWAR934NSYR865GH5QronMXYx5ms5n8AAAD//+xd6Xq0KgxO5jv3f8c154cEAoRVUFzePm1nFCGyZQXew9ABnB8GfxD5UbwegUaK+wfe5gWDkToK9c596s60H0MdF+Ezy/ddM0bOIGWd2w+O68+rH+v1jvUomovW91XTK0z9rCA5/Plna7QUGSkfIoAuYuw3xYtM7jt2X/o/2IPkNjexcgCI3brrZ8yic7TzJzLzDznbr/SE17eybyLX7JqU+BzmsN9HRBEcN8NOWqJxMpSiUm95F6vSRY6MAIGzxgsV2bV0+PGcOZEEArMsTR6w1QoOL7UBAXvkPopYK/wZueFefvbXMXRADuL4mWYl8A9LxmmMHCDNzO/KyDusna/EbmInt5FMUjv3Q+Dyk3lbMJrcDpaIc57F1E9CZVEtoYBrMNB5GPZ+olKJwPi20YUdzQAHKafWpTfB1QQazZwFZyQSa9nvE0D3PoYOYH0wGGlUc4Mj7OYx4E4nBLgvMz8Vt64kn/jSVq9JT1AmfV312LMDK4PjFkcH8aEQfYM5+nL49aT0HHLfd0137vawe0AbtHT8+rwtYzenFtLO1PcVUuvvQPdOhs5A++cU7EIsHY5oXwHaWBpek8tWU9ubs5ndj63UX66tDuO948J8YrO6MbuD1NLfC01zf2WNHO0KhgmC3EluFG0hPC3dFF4iLmrhCqGarWhs1kIEgt2Hj7QmY39XUNyFeJqpHeCEvrzYYNmRNpPnYANykpvJ5I3Cvl5di3T6tiC5d+BNtUDRB+1m9hKo/Yv96bOD5MTWrtlikNOGCRvHE9EeOLf9Af39LRtA924N/STkguBWNX36Ol36nhwnLX7K14D2GA07/yQ1CqnRpJi6Vsda2rBF/Hu7YUpo6WecPDQDA02uMqKAs34NtO5SrFeNmfM/csetTvI9u+A1zIwp8JXzAXSg2eSetj9j+t9XTE0NBmzAp6FPhvOb33Ot+Rf0Vgs9yM3XhNOordc6vaIut09L97FyDaxLW4KxE8zdX4PjoK5gpGSC5vic9oUa52PoE8FT/O43v5qa48jpgrk03bh7nRlp3jHOVV5oPxDGWS3XmpSqMYHmmQHaRzGliVqszg3Z7lvDGk19Ut+Sh7b0nnNQBkFOWPc/XI+Poc9ExtS+KsIJrVbD5LSH3zM9fm4HZuL+Mp61XozjQl0Q0Luxeg2MpG/qu7KGvrEmO6kcscRYLeIQs80RzeWKrWMXwMfQJ4H95nfc1jWkt4X+5q4tmffdKiqL/cU87XwQw6zLpeQ4NMe2MjPHoBGuaotQmLuAjtW75JU01ZQtZVcisTXsaMJx19LxN4OhFohFcBvprMPPP4Y+C+w338R3TfFcTRnV6Mv11xYNPlvYSpXggSDdemkgiUDcCtNFbc6pdLo7pM7bbje7CU3vV3ROGSVKwecvoONyxFUed5BoDjGm93n+9B+4ZWXyem+GGUrtgDk0803Dx9AHg0Bq55k0sDAPgzb6Vn6PY+h8M9Pw6pDPzAOl0qiQSmZdR7nzpdsMtCKe28BFrDVdO6zRJBVUsMFn1n7vrKWfHRyHk3fE68TH0EdD8ZuvMfj6sFh/PRH9rcYm7OLJZk2VW2MIrhUV/fusdKTuvxEr9/uRtNHoDBVg6E8fXgAADGXqqUiiHfsb/GDFXvIx9IHYBdCjQXBrdJIW4fOQ33xZFBwNOZ4KYANlinOMUKtHLW3LI1a/0fP1X4CwP2hEhKb4W/ShxWHqsI7HhhXfFsmxZzFJSwewZvCxW7OKESFC2pEPblljqvbwMfSBIDArNYLrbVGQ95mlnj2nFrzVSU5NHPwarO/O1xTaP7mbffvFebSZDMM8nFuw4CfqLbbmWckrwhd9bkdrxupBcakHZ2rpqDLfgbDBRNJ/vh4+hj4Icjc4e83+3m82qqG4qVs/QquSmrnyIuT7sT2eX6gsVl70mwENFbp8OpUvZnh3PCFkEmOvzcvJHqdi3ak6xhHm2v5wX61I+cxaBDYaPxfYYDU+RXNC/sBWgN+yneTb+nUAiNxOcLfmVwHsQByR0e3BzDzN6OxmLdDvk07xsTr+1mu0d+dDI0LdeenhrZLJvISCh6M53GAp1IykiySYphL3cMveecEKi0ZbHx3IhvZUtBFzl9IeYv/4VfEx9INgJr6ZTvo0XDfNXIUUw860bXBrZ+qN4p30EYM/IclcWtsDE1RoeQO4OYvLr30DnufUiTTrSsgn6QKr2TniW17uCCkIAFSzR2BQA5NczVfDno42a6/3plPYavPkP54vbUl8DP0oSN9A5u6D8aT5bjEceWOymqQuxFfWqOYGrHhsZ6QZvaTCH81a+g9ZUG3YBSvhvsTgKsY3a7N+CRCACDazzGudMegCG3q2MJZhEWTM7ogEhAP3WUNDHf4A6O/gmUNKT15sVzgNH0M/AI5q79kNbvV4H83duXZXnohcZZh7vt880nvtRFaqRI3to3ZRfS5knwrNwgLgP+uuYLhphj3RSjxQoCV7TVHhn9232uwqG88rs8hJmWcq0TsXeEwdHFNv96kUUHMKW3Ve5o/YN35lfAy9E/YUNcU01sPcV2TqjMX78PmIKoTsZccGKUqOEeuMkbyXdn/v/8R9cyZMVeaaRk0msRUS2N2AqacqoTwW1lVbZqnn5L3W0cXpJdcbNUJLPoDdbVe79/nhcWleq45Bj5kFbFmG2dJGAP/Ga+n7rnGUHgstGd5EOwf4otwPgQ4cvLIyA/8gkFOupHZuBPg9okxpXXvphEmhsQgKvqF9h+Bd7CWCeD2xS5vs20M7fa1Y1Fooif8UXJsLu6xrqzts+TBVpH5sfbQLVkTiU9lGVzHyxi8HxpuVxO+hnQN8DL0LHNUeDrvEVF7ObxBdR1E0lbZA4QfrIsGAQ2ae8ZMERupuFPOo5DMNFnLlqXAX+EGNeIMJ8TIYzfzKkxlPZ+pGOCQafHgLgrcdbH+299LOAT6G3o1w3XAvI1+F30medZg5rfJS1QjeNOVDURipd654YlOWln6Sk4MIdtM6BY1VMxnmfNga8/YObFFoszR6loe0adqmJeX664HC8JEzCc1Hvj3Gz1hEsO/EtYXbcR2EMZsdXhp3xT7xB/Ax9EZox6J+k5LAUytDnWfJXtJ854yeg5lS1hItG23jKvX5WhpU7lvTsOkRkXK/32eqnIXAdz4TqexFvzirPfzhNOncdO9UtOaHwQbDjQ7am4gvKK4Rt7Ikn41bVspRg5zZICO1ZWryyTxNfSbzQq5yFsXgWlA+mwHshJsLIqCBRL4KPjPvYehNVa9FQHImxfzSlpfWpte7nHn/gcvY9iVsJkCOag4T9h6+le+ccZqGbuNoSJxGJq7dAWwSe8pJahJPeY/pIP+DM017N6NHjgiBrc81T1yJ7/HmODElsemdr1OULpHF67Frp/LKZA5SMLyc3kRc4OgjVj2ze2ud3st3zjhFQ3frtcGXQtFsXYHgNIJF688uU4NvTgKAWDR/SqVUvkcc2Z5O53uhazp4XLEjPKuqhzsVLxA9V6B90XG7LlLaeXtFdhlImsdrPj7icPMbqXBfxgbDGKnT0qF6CRtJIeBm/Xo6Q/c0ciBnzTN9A4EAad+dCs1mAOsy9RP8XCejqqpTr/ysqmh+n33I885ZmWAw74lW+HbR7LRfM7NiIV0wbyPyWl5nfK99j88SXwDxnMIXVqst2YInDXYigA3HHTeO+x/En4mmL5je+ebNguEYU03uITMnAD9CF1jrJfgjgs1U+Go802nnK23FOAZPe592tA/amsj28aigExOfw8updCk3OcovOjJhcFWX3wUnHG3b1D3humEcSt63cvqeMvwLR+IJUuCNZuLOn0iNo6SJ8zGNofvbopaZNAEJ5r8efEn6GYyw2rOEwe+r4U9151aH3gDJvhgmz2nlOWs6hc2fc7x+naQGjnHxlZPqrGHiumyOUzcuOgjM9l5XtEmLNwuGY8zX0JmZK5Wjue+IYuZ5NVjYqHA3Lo2aub05o6egxXcOYfDr2T0BgbKG/h3dPBa9p/fP1hIR/lfKy9ETBc+9DaLXUKkF6zG+HtPtPBNusxlS+0tfpsY1hj/ILWMj6ze/7wQ3T0MH6FpX6JjnGkx91s6EZ6OZmZP4fTRaXtBo56YCzxr3WjHOfx9PULLZ/GZ0abOkJwLjEGmM/v34PpWC8zPyNq/e9YOYx9TnlF/sgyM3mzFSeMmJgBzZflOePoWh81m0XqWFMwykXXarMHMA6Ta4Nw5NHSFzv3tlAID3Qq3BcHa8r1ERdeZ/FH0A7d9khtFNSnwOU7XVyU3nzQ5Ie86Fc0pjhc+iscjMeV/7gUTsZnTW0mOKdkZ+773W5lFvfOhRy0kRKeM/WoGJXqGdz5zgqt+jyo77NpA1tQMk5oRpJftITUfppkkTm9W4MfxK5nctgWZ9BBaUKpdin3lsZCjZbFRVwbaNeyfW0o1pneQNee/GUuZUk7v9n5s1Eq1F/PeiOYO9BWcLFpe8LgW/b4B818oAct93vp65AsWPvCqhxq3kM9Uf1J6yBg/Xmar86sMQRm+uEsnp3rI+insFuuehipkDbwc7jg/YpWjO++HcUTf2nTOusS80jLUrp8uaiPv7d4EXordTGR/yiEY/koVGfqzFZ4J/7G8lFYKp7wLN3bT0dWiMtfMTo9uT1aDdXKDOCObs5IUBA7KS+r21c4AzGHrBtF7CFfVr150HDF1+5u6wQLc/jpt34iak5q2CU88FoWmZ+Lhiu8hU4FzNNXcnlLIV0w2lRoSPlnExdwytM0Ljra5XGXjj6Bhf24PXpXtmd/PdaOd32+ZVwzSGvgs7GKwS0Jd+aXowP39VHW+JDlQ3na2HojHk/n25AZT9GkKMefC7JEXparXWs/pOuVm1nlGuEI54r0l/3jgJBZBVRqjpFZYxXSjCFG+uVG9gA+RGkuVvNAOP0c4BJjF0j5mH97T0wWfWhq6AvyFOIo35f5f2L9LZ6E++LzKzQuIyh86UPETy+kLTYQSCknCnU7+PZa4Lkwb90KJePLrLBcz8sq2jF63kqtqgCasCOOIdfm6p2gMw1eT+U0J0QsTMfDeH/AYeo9eKmhiMxeTYfmgv8Yy+raMj1sg/VtkPhrsqdKm27+XSHaUbg/962aRcex+ig6muQGeDt1I9Jf3IJUfo+Az+nqOdA8w2uVvGXGbOjpnD/sxFM2VqV7g7obrqUtFVd355i+PmQ96LzWnna1VMKzVav/Cv1fvEZd14KUZIGg9DvXY+uVKyQXFjJ9uhTN2Y3YcKRAi7ho6/x2jnAJNPW0PctXQAsNvAAgEQioAy4jiFnflbZn4BUkKgtEavPg/JcCb5PYroezMaGpEDYP06c9p5K1D8PUNsHNrUbKHgAQxgT2M7UtJ4drIK3NxnmZF9WfPGRHDZhGdxh5kNLFMfFVt1ebVPwPTjU5mpEyIgkTltTXDNn9PMr/ZkcICeFvh2t7b3GDv51+4wdoeiS7I3TBt17fzq/hAKbvKaxLH+m3jKzP+I+2GUjhbDrRQO/VymnYc7m0Lpg54gJF05g2pqzaz6CQBaRABaF9MZOoCpfwK7VIAAYd+FP9gC48J20g6FuRszV+mk+9C/EqyZPfKvOc9wGAh3hp6Ta8tc2ZLe8uSM3rsk38ubW/dcew1B/QxDE23WQcTMWTs3Os2sOY9lBayq2Dl1N0MI4I1m7rzf+kycwtAB/I4rzY4rQfrO15we2nC5VH1bOJNGi++8rc/09bAj7h/uD+k+Ed/xyxE9KvSZEY/qXWvPScP2VpBGeuTb++1qjN0wbWlqB5jLwXulvUFFnIKNrtoO7RY4jaGvjN13viYzD7XAZDrl5uWD76Zw2jmo2nn8Lazp+cFPWg497Z2iJLY4KCbhSEgnIEKbJn42BAaFuNiE6hpCTQi40ifsqLDLX2kXekhay2YomCmOO7AqWpn6UCGAPTqGqeNneo/wMXQDgrUYOWNFmu6LshYXTrjlKaNkvM7fO6N9e8pA8T9+3p+m9zR7qm2TMSgVdVMxJyf19kCgQLMD2CrzvDS159sgvNvJBpXuXZdT6GDRaFoDRABI6ViNt+P1DF1u81qDK2V/SYPF1cQsB8p+rXne09C7dOFresm8Eiv0eEQ/GYF14IZPeyzD/akoXW/b3eKP8IOrtTahnRPtwg1b/oTDfCofovALQr5EeW8OVSPfdx+Sux+dLtyrZFW8nqEDgB6Bmko7kY5aZNyTLwcdqhxvB7STYm5WEBBD+O9dL+gCAPxQLP0UzSG5eMzgJdMhCFh+sVAhO1wIycyDYDhDmww7EPw9m1cTVOGI1x6kBsY9ZxEi2jX1Vcwxi+D1DJ3Eby7NVVAn/NU4wBJQOIWWpnBvP0nsqNlWN1JL3H8a0s3EmJJQim2jaYmRk15R94Sabrf04wtnDZQ4hmLbyFEnBI/rcVzyuVx2IrBautwT4cPLGTpL0lu1r+s8JKa1viXVj4dSKb315GnnOVOzeKCjUKmPVhE1oGfm9F5ZQq+RA41THJGcFpopE8S9UlhhGBEv7gAAOf95MoeZcG9ABEBbYe/xbgY00zY3VwAaLgSQs6x+/Nzh9QsApHYeTtOrdBSNvg8S6P51ugOZgTvtPMX2wp6h23jchscIbFQ+hv4eWXoy513t6XPh6oBSHlr5XhbyS0QUT+pX+lMD33lyE5nr5pVylMLNZhc77G5G92S8W0MHfQenFeI8NYOmxCrCxpLoVDY8i62SpUN+01Y9i7hXaRqsI31cCx/rxyj+utxSb2F31kOea3WtsuvtUm0jC70QY05UC+zz9pVkniP13XUYYvNbEQFtpGz+9F68VkO3Lhjt3unUVGJZwu4OoeVhzLw0FLXKCoRuFVTvHC1lNMplh+7sXopDFpYqjc3tV0Pu2R7RK/j0PItbW3+dU9LJkKsIPryXoQMYDT15b33UBPS9A+R/bKyQKJ4qMp/X5ZGDyzElLmjm/CMl5p/UHAf98FmvpjAfOoiG3D/VEYIYvM/5I0JGtlNlH8wKcMWuIEY/F5hJT9G3B8wcVjK6+XsMxGsZesn9crUepMGfID+4CQ0OzE+C1SJAbjfyvQhSiyKPTcY9x78b3k8b6ePc9ivkpcjBp1ZLrVcbQVvFBuKJtXSUnEfpfEILRnjNloN6SefAlD3K1K6C9K9h0yw+KbT3opoHyGnpH97pQ7fStLympTuLoEqE88VqAse5SPhLGsGa5K/gO9eLihk+X9U9x+lnwzz0Ms0p5Owryvj8azE2XoS9oC64kH3p+1Xd8+4/n8+fT3fj51HY9a8aD9HBTkyg95J1DpUu81LlYyM97zPy68XuR+cBcTU11+KVDB0AYCvcv5yZF6wHr8eQBhJ6bqSd+9NVLlittT3SpeiQAgJbWIkIfhyw1kBA/yRMyqcMcLdE/BDgzzxU4j07s07cDQi3Gvulu4WF2rkQWbxGC5+QaOzIl09M89HUR9mBTvAtSYcXmtxZuZEaemqMXNY5XjBoV0F8AEsmbeW1Y0ibuK0B3GiDdke2yiC6UbRWa5jo/Ok1haeoRP+Pu45msRpyyVf4zoPI9rTHZkBhg/O7ALNegY9VfTtex9AB4KCvazIWJu1STIjhyXu9654rpUndkygJlpZpW+3cxYDUzmMyYEz+zIOJKvjtWnroD6/x/Gvw8rEZyatnDSDWzt18Iq0ohxD6yOvDDt4LTaB6IV7H0AnGHZU6RACn4Lci05f32bHmduuHDjNNB6rNgCs9ze6cZckFxrmll/nAurAUd4Vst6sVQHLww9OYqVvqg7J1fpVScp3Jnmww3JXhcOq6c1mR3gsGTF/NEGTVxfdkGST+vx3W7P5VxqsYOm900dLsp5vdm7StF2LQmGW/OX9eG4J523nL19jLem+u34eR+yMq2WfqP+9Y07QIwk959zC8J971wsbLrjtXGbJLe6iGJdO/uPMuw0JNpS5Dz0UYztDlpLOiwJTaTKYrr0H5WLTafl+LYzVvF30hKAFlbrpdqSnClRmeVdb405WnIlZdUVLFlTz8eqM9QA5FRHqiVJWZp8oo5DcX6Gnn0TyXehGSN4cami5FKwk16Xteiz4tfQJDh92kXXu++JkIp7ZZHasJwiFbw89XYjLXYEyLoFffsbm9FJE9C6k+YAVkwcnJ09JJaOrBs1UlH9YblTpzgpHbbIbieyJ9KS6BIGDmx8nugtTO3UVBS9YcrjgbTnqH9WblQbBV+m41fShDl6eX8e9KfP345g/n4GPaAYY2mc9kGCg+aYrVGXwj5QWX2rlmOyAA2LaQvty3dngWgYp0/hXyrSHZDk7qfU/pLWj6ZyDWzsPOlKCR/N/IknnC4F9hBpxCw8uZOcBohg4AmzDycfDZCjy0JwhyJNm5gKNQKwvHd08k9mNAyS9dmTEj//107bymjoM5uQtcttbuoRVJaucxfaylU4M/vQ+ld6VCqVaz1g5Ekn5yIbwERgmT1u3dfsXUsm1CMbBmiUDb7p30FpgrV0Gv2Z1ezNiHbSyz+/HICklscSKiNQ5OAH1yOLN87YImnF9fW4tgcCPl6relqFHtw7aAMD9nrd2ZtbYqQ5q3ORfaAOgH1n1zBfR6dFTL3eM8EUAKK4iAiTk53Ejm7PfchaYtf975h2sgJ/mXTqJDNPSdiZMatLNPRteb3lNHpZ4Fr38lyDjLtLsssqrvGKMxM5QrlzvVAT23IGSUDjfm6g8GuQKIzvQe+tJ3wwLGUldgya5RDqa9vrWECGk8ZU5rz/rWWIb+m7hVZ+EwQ2eNfFMmHGd6v7bB5WYcjCsEuJcKjXXIdpBRvceZ3GeX1AuPRzADqaTK23BmiNl9ZG1YmwP8Skw5ZTK1DPOa0SvdHzN4xtV97zl475GqgzR08syC3j1wUu2VglMoTM8iJTXV2PIrCv4YP2OUuukY+VHtfKYCrAnE2wYAJHc413sHmUAsayWjfPoyJXOcU05D97V09Io1NIfaufkJKZ2P3Qmyz2GbrgEOGrRnTZGP5nXWrPU+HGLoRHsQHAfCJdPB3ImwhH2CO6d06eOMfhMkvC7wraozjG4vUthBO0a3kc42UViV0l5pCi8Y37RbXdIblTGrF+5Ue8vOoqIS1/mZnMSc/noYpaWBeXfRBw1TqunFzBzgKEOHOvPTbnb3fexnIdyQg+kJ8QpG+kqIk8otN+7rhTPZnHZtj9atCQGTNgeOegcgOiJ+zB0RzlpSp+3KQ1jOhalbaWX8Jov1sb0zaLGboTuJtb7iNgDIBffMQo2pvZamSJtOPFgrqH9zw0lAb8PQBChiMDMtJ7m+2O6i2qkkNG/BvvcqS0gqUfrNa+oyI6r4AW6FymVB7JrVMpkd4QC+Abwo3nr6WhdDt4FwFeE60qTIvvazOfo0ywAFE1todlNe9colN8uh2CjHa8ganSu4Mt+eZTmts8pKc7tMi2GyrPnZWs+44IFo68N64c6Pzkw9kc78LW0bmynqMCKGnhvUHxYBef/egm4NXa45z0H2dWt6h3PqWU6K4zKFKNPspJlg6q+eA8JOUUzUC8MKcUzMt59vS8/SItX152vdWCEsvyM2vyMQb/Bedeh7fYG9Y8pRILV0cT1BZpNiHo7LgyDijWQy5X1meABYiHe+OJahmaHLNec9cL7BrsfbyxusnRMq32UB2qT00s6VhMbbMDUKj8+U2klfKbIomaZnltjTp3VPJfIrilQvMGNmiJJ3Gz/6BmbJaDXJbe9XsjQkrwpa/QNy4tzkrnDnDiKORahYoTOImZ8p6M8opyfPWgtvV8Yv3PynnaGDW1feU1nSVD/bxRHSOKo4QvdrpfPXq90KWhgJBd8HFC41QBk2lqSh617+GVKu5Z6QzCN/VEkMyyztC6OwonGHVZ+aBH9Q+OMxoaWHlFk3ewOdQwb6Pkdt+jF2cXlv4xy3QIep6+ZoYugyEO4IeGnNGZi6a9C7+ko7QtP6BROfYwotBV8kmZE4ZOVwPcnobChEZ+e84pMbTWjpkdCFYqEhnmnXNoLQdv3+GR/6QRfNOVeimqFbUzuk6yjUhsNf/179Dlg90Jar9WKEAv6iPuWje0AdqzGr+WHMrtrbsbUHONrR+58L7OKdyBLuqBzPFaTtUe4+JXUM6UQTE/ofua0cjE0hIqmhM5H3rxluPf95I/e1c8QsrLwP8iTUM3TYTe2pHeFkutR9b6KhVv9eH2qz75rKMlHGHwwO8Ygjjp0WFkUNLDtMlRNd3RPFnAnA5+WKkblAoO5eYk3dvKVqdk/lNqcjR0b4SEsHExuQ8cNPAwq/OZ1RoIdv6vhwBFUMfYa0ytrIzDPTW7PN8WdtevPOl+C5SSn0c6/nML7xpXYuze2pNjinbdIe8ZR2PqpmWHi2/vWLe2M0joC89rLL2RJkzl4nEzH0B3LZlV6pRMsRWi9YJX0pigxdMvNa7bsWBHuA3AzYCRIONGjGv8CMW/M4eul6y/7QBRTMWwpSOWN3nMcsJDoTa+f2ltvepsR/87SizYtN7/WBdmf1XNFegpnnlqppt8bMIop2/uARPHrmXY5x2k6/HGXTkGXo7De3UekVGea0UTXchmC4ls7MXDdB5p/LZ+p+pXL+IYMLKsj6ZJuD4WKQ9ymdV0b2y+YKQjun/Wvdbq/5W1Eprs+uyKD2mkMA+GGbq+TIbR8IAGJXOGfO+HB3fAzdmSrYzz2zSmyw3TAbY5rekW7v93STDlRzt3GTptXOA6ZwrIQwfLPf3Ks9RcH4sho0+vSHTA5t+hqKwqM/V3QCCX+VQlpelEqj/i3J30SmOtbg3nj8HPZgt4mGrIa+8VatFUhNOCU4oWF8jbcy9SNIBVW9pB/5aH7pkS1CBe08ZM7jUZ8rB6yRbhnEOLOSBSz89ehqHmf1oYJ1yIgelHGTHCi+9m29syleOWjHYMWqO3OlwtVQGXoYBNdbHaGGkcM2cDClpg05PyanKqHy5Kaz3MT5WvQrr4MKl9p56HDhvlzTWjZMrYuSsssJLVXeSg/FcRxSoPH8XJkypfOj8xNn99xMmSyAeTsGnqFdOXqqNpE5AWdTscZbTwT3+ce/KMB/4QVm5qXlabWwwyWTGfsON9gljOPTjKbuBPQ0QlGWwhLfjUMVcLz2mInra5f78+yB5n1VGTNrhQ00pITLatqEif+Sw8sKsEGA5OrxcNcqvKcztb9TO1+wG4yD7US0ZocfDI+hs9lp26TfsKcSUvpxOq08SIUgH+VaLN3zSbY82HXL0/pTGtSjUV3JFbPrEQIQYN9brNT6K8za6JnZkxQNrS7cxzWxi5hXeq9QHxJu5tl7DEZ3wyu5rWHTvU4EJFqL5PUj9mwK1njrieCB9jaGDkCwbZvwm5vITxikNRfuEwHQDw5XfCsTlwFGpfxKGtLzu4xAFx8Ie9NA7RzSXeeY86iOhrrcnembz0Qoq8ulHtqGtec3GitmlN4xWqZ2HZZsjpNQ4jGHedD1zXsKYpO7/cOsXFzPAsVf3YwY+hDDnAmPm7xqnyeA1BHM7WWa/68akM11N2tEGbsOwr5+uc82M4SKeqA1t1t/U+1zVdavvBHfW1WCaK8uBWMmtW9MmK2m3ISvW1xlQOI62vmHOaDK6Jm7IwiKQ/j9frbjhxGnWhSq+/UDicL0sdHMpXWlgzgqsR/aLvGhWzVk5qEWHmrdNSFEi02JC2MU0yW/LyYCNs6YqkvaBaciY2rfZB/N8yrI11f9m8mn46Wo50x3daWQtbjIa0cK474hZ53ZO1W24Gpms0AVzIW0hj0YHkNH4LOjMWJoIQ53QKVixdlKw/L2GHEsQ0SXrh5Yt8CQQTFqZLltQ0MtM2XYTwua46G9pbdELRBgJU2xWBIip5PqaciWKX345/b6Gqp37KOzbD3I+lmSt9wmMjmqPtwR0bwPctA9F76Gbmrgl9lHeQgS9Vqz7eMJZHy4GXzGTFlGfaRrtfYXVbwQynYYENdGWyl1XlzxbWTnGdzlu+aVBvIOa0H5sIIaC4lnqeE9NhQh/8MxrFSdCaPdYxGtQ0cE+P1+u6YOMEeqUeaanZH/DpncW8anZpLvLTmlCT4azZU1WkoTJ6RlGu8c2TDudapmbrVisc1r7oEk2t9KmvedcIGXrEsn+5dN69IpEcBaXlIjG0WeycL8+9wG2xrBcAAvmjc+TIW6sQwzdWRb5mQp1pn6IwvkpWh57YXIPgfV/WGmQ4O1uHRc9Mhuq1NP4m8hPQucPnd1PFZ0uHns1WePVUvnJtHBZUbl2osKs1cTF4uxz3LW24L7tX9MfQZEDxu0t8rKSG79iojw+2V82mHNHKgpW9aIgDghcafkel17Oi638CT86E7T/HLSIzzQbw4iiDKIcDzPX64LK7EPXJ54FvtsPf5eJLJHOzcZB+PLoykQMmpy7Rk1foyAa5mS2IfB/2b3B/NuoZ2vuF/7U+aONd6Dsl+fiDRDB2MGrzn+6AgzB7DMfKZ23mJZS/n5Wp59JJpejhKfx4GDNzXtfISAlgcpn3LJEY7vRDZogEizO/hrU0JhYxbS1UAASN5cENgU6qkLE0pT+8IjdV3K7oFwPnCWHWpjBDdE+nAWE6BmfenK/ez3ClihYSAnTzZXQxHrye0X4hBnnMFS63znc5F/J/+u81NLf3VbrfS/aKR4Y3zfncKmJBiKfH+IDjz2/ROaTSPxHZLzk11zvvC8/s0/c/BwXg4AhdPWIoZbsl+3VhgC4GjtvIEGzRx7lIzLeMxozFVvj8MajspEjtXW+3K5Yp9wyyBzNmyI62cOmSTKSjm9Snq4uUulMUZe8h0I/iYy6+GVwbUToNed6AwPrtwsQ7da+r+f04ZCJ3HIwSoriwPhfoNN7daYVkHHfLPsWzGvRj0BzPabekNxe3vX+IrTJTs/NVx/znayaFS09BKdmPgcp0rlln9KfiXAaFvHQiuGikZ0muN6YvdcgeqNCHreCyo22vo1BDNeQiyfwNYSEcYb2Jxhbg9upsiU19cb7h9s65j4rrojTglky8ahayLfegq8HNLdHq3bTiqFKf1U73MHe2KD6WnfwQ7gH+bo0TKvJyUcX2gKqmoBJECKW7IGdle4jmc/3A0Zs/G6hxj44H5ul6Dw3IfmH6rduMjQAfdBx2Zxa65KjfjKuvohDDW1e0tvBkhidRPaQ3Go/maLwfvhHam2cQExO/twhtywPdvpTDJtkXekGAI433lzZz+RmQt2S2a8851pKAnZ3sW93Yn/KwM0NWb5SGjnk3/tyP6wOgQjJ99sZmD4sFnjHTL2MkPf84Df7wdEf7uEzAOtc2zMCIarKbMl3QusM2m0WFo8zKw1d5oa2ihojw2ptFwQmmEQaOeX8BFdine3RWyMEII22gVuk0MDFPvWQZOX3xWNduUpFWVvOgFvIhMQ0t3Pz8EnevThtnVGRgXZCGjbgIiUA8Ro57+8acvvt6s35qXzPnQBBLHZzEEMD4RjZKJXw8stHsLXoXqSq/Evj0Xsj63Z63tMufmrMQ2edp54Oudj7gW76lsN4o5eSXTAnKua2iVyCraiThcpirKD0sK6eP5ba0e4D2cgMaJMP1q1L7Dguf1tQJtj5tHbEOxnL2+bZfzc8asZug2Q481mOmch9snP0M6Tc02i/V7NtHOoqphzBwWb0p2J6TwhogeWOVoNtc7jP6Jc+7nVLGW+EEnmrmSsfdfeLHoG3W8pr4iJu0ThunSXiZ+Ra4OErrtu9/nQDV3JQO/eghBMGklf4xEJ//YZF9tWz9A504PMGAftCFdVFkCx/UZrR7fGucp2A3aCfua8c801nNeVxyDuJ36FedOH2Sf9Egzo0FtIfHOefcb6+IuSl3QHqHXMroS1l6k9GdfMqfdtZ5I+87YHzXMbADQydD4NLbslbOF5ezzrx0XXwsJjwUqmVvpKSx1XvYanGRMPUL4ed/YZ3d9zETfH34UmcnC+/yAzze2hE6MUI2774hB6eWdrjFJaepD3x8xfikznX7U72AC4QjLQ3Uqw7TfaNXRwWnrLnMHP/X6/adJbzgr4yQ8ZdHXys2wbZrrHthJnjFuZZ5oOY9yzluDeOjpQt5KpV1VayBDdGWghw/UTKhNQhYUnZ06sQ0XrWoFq1Rn8wzxUcMWVwG6hBF2a2BqOFe7nzQzd+dJ/bXOO3EZ2Ah8g+ye49iGP7ko6p3Z97Tw2cXuacfDsWab3WDvfXVuptefTtfNBhaS2g42YfIerJqrDmjyi+7HY4dNe1ng+OLyhqoj7ypIv20aUG0NkhYJ2hg4c8Z7Z511LbwSBmUpdShr/tPNZmD0qWDvfB2EusjlFyVEKKfifZuZOx6yx8o6sudjUfiBiVeTpTNcavfGVZiv/gWdlf0ClA7hT7fpy//BQLMnIGZ39VLxTF0MHNn9WBshZE/1Ux/nSLbUmltbO+RAWqQvWl1ttba7IR4PPQxwj9/YvUagePQLCGklawLIFp43gTtMNa1MXzlH8zVMqS/Hvtyn7sYbeHWD04eZonSUWQgNvTKbEXobOD5t16TlSPJ/7Jyh/aAIZF4/s73lz2QzPfmjWz9mBHDM/QkzdQ5YOkxwP+bPQ+8f5e0Zt6/tIPh193vORdg7NjiaZuWTxfDIDe/Vj479nmDCV/yTt/JbMqRNH3/WsqJ7hYNk4ISCn3ouCRAh4gKFzPiXN+xTtHNZ1i6yKm1RWpMHRmoPWmqYDv3PKr18KqqsGBl9K0nUxM5mHtDwYLT0XtFCAH/3QRWCxBD7v/ClYsa/fA3HNSZ1gOTScBR0rFY6/1m39miRi96UTIMCf7lP78TK3mb7zBDNHWLPtLsGwijinRlkZlFuKV+0IV+aYavLUI+USzUCkfZ/x0iEsMyCle99wnUhcQ5hJxw4PIgJC6f7IUhOhry5CYkmJpHDb/xIBbBuIjWQ+dngVuAXOy7NmPcO6/QH3Nd1AhJ6rqPhOO5MFXgZ0SENn8DGoYTm8Zv1qtPnkPqRxVi06xrH3I1LuJnBEwVWpKIBc/3KHsIC6Wm0uiwm185zVrERIbED3XAnRwxgJEjkTvExXQm19ubX/30hfBaNbom3s3LAfGKbepP3iz7OAH2bo2mYzkplf7Tu/XpxYAMP69jm1ufMbCvoNCT9u/nm2DMfhUoXnWoi0xMBOLeUY3ngIq/4JxflbwabqSQvQG01iPp9PdP+Qw8J9w/BR/P3qmLph/vhDALGE/JjJXeCHCPRD2DYSTH7eJjKtWIWO+0PYwKfAaHjoGHs2CC64l9rHJWeuc2/km3RT1ml5ncBFgnP4VpjvFPBB4mxvx9EtImtlD7hhlwLi/p6aC4R95OjlUbLzW6O5/a7XXSbyAAGQEBDZ7THD6Pt8PKHWauhf8j3R9Pzfbx91tKWHDSvLwX4wQxg6R9f+fj/Y96AD/xCXs5BxG74aw4MJ5jFzZ2Y3RKMpTyuyhQxNfcygbIp3+uf5K6SC6aiXmVfx2T0RmUIIqOMkNynouLA4LQ8M7nJdY+YZ+yzucg6tOV0344o3GFnmui1wA00dnT9dbpCEfA564nzjYRo6SxdWK5+8icyHBvD8tnA/lkDc9T/m5R5CjRwCm4E3l1NaZVezxeB7riD+iEI7Tz8yElaPHSExV/YL++pGeHFlk0jhe9J9HT9Gqn7263rcRConNH9Rnpf+4UW40QRXA9bWldg0/cuOcQwd/AnmW3N+EeT8Kr/fANbEzl8qJma1m9X4sg038Ypo7LPWr5whs9EwUAe790PJ1C5L6+wIwTwpfenxGPcZvDSgO71cQtel46m5TjRCDGXXZ2jqH3a8rjV1JTyLoQwd4GPky2IIY58pHThGjp5q7nTnUulhmmJXTGn/RT6Ike+8ssQMKi0J0i19EWxwnGqE01uKBZBYW0/p6F2U7ZYdZPfAh3fhYVp6B4YsW/uwCKb25bkDBaPfPu1c5jEUqrkdxBGjrZlh8L0M8iT2knbeSE6pbHCilX1vkL7x/LNtBce9oYZCBHB7F0i3SwNFH8bg0+uuwcfQn4pbBMHJ/AkA46VqGgVuvu7X5EjRFWtIZBOCb27vFSE6p70pEku+vDBOgWA/Uc4RFDyggKI0e6Xm24JAihNV5GJJIPzYzVPx9pYdbnJfCa/zuYQ4xIfP02KkFdlq5xnHtGvXeNoutXcVGy8k8bd4rXokg5agPU5+RJxJmCWz1srYmUHmvPE8+aFAplkmXCZ68S0j2JTC203DFx/34V34NPQ7gxKfbwWehNviL3os3Y06uQLjO4djwXSSouq3CAJk2t6krYxsDsI3vQs1VRvyVhQqYyZ0H3zOQB9+9rX02w6OU3G18nN1+U/Aoxn6YzuInPO6fLirwS1Tw4MvlPKYtjPAtO4vj0lt6WUiB5F/x/PNHftYJJ3+lAgKpFSqXjdE/Fyu/Sj4ZncZ9ITEew2Su89da9f23Ws3jUcz9A89OFNCkBvJzCphZF7GNBxo56kyWsO6kuWyD1uY29txgAJfgvGwUUn8kW9f1xqp+tKeTr8Vuc2Jboh7Ur0C6vr5U1n6x9Dvimk98uyIKzBBV+MEibowqvgdazzTIW/LMfMhqIs3Gwcl/1yUuo0lCLT0dvuDX14b89ZyAKep35A93p3hXEf//dp6JD6Gfic8wrzOcNo5n9R3LHJ9BEVgDf+hZ5Z951uJk0+gyZAAZ9eQ5YWFfke0b/hMijAYR7ZnS7Ofcho6Kte03Dgu445m9/tQuhK+WvsY+l3wsL7KrCk8GvVqZKmJLM+6lj9GO6FgExkcrPbUUhpz8+ip/KKE1FMNJcb363KR7pwvQO7D8/Eshn53O1UKj5uD9inbaVE2dnxyuengsHTXEaF6Hk9AJVWtub8EPx5fus6nd4WwgOB77A13dbPZXfPWGIi2f8G8GI0PN8SD+8KzGPqbcFsm7/YW40n23PHVXhqZPx5TzwTDec/1wqucWab2nHd8j2DXkqkrCQiANn5S/h+Lthh4I16gFMvWxwVRLA/BV2sfQ/9wCTxPdcX+qW2TXLueqJfuSpXBcDSMNYTe4P03yrtCeOgvN3OX7B+Ql+K4dSdw7HU0b2JttX7s2jlWbAf7YRSuZavvZuofQ78DTu+j8yc8u064Jm1TztIufpC1oGRSYYBaXKqquYYZFtJ7qZGD9GZBz3t/Z0NhdVdAZ3Zfbns2Elr6hw/PxcfQPwSYORlzHLQ473y677zXq+3UYm9pVqMzNh02l8nHD7A/Q7xSi04h52ZPWOknouz42GubtfTVhI0PtSj1zbZe/Ew8gqE/UvI+fYna/AJRfmiYWIuaLMSD2V9+1tdD7BGpgoZR/UwY8/0yvYj2Gb06FHCUadALFsjnEpreU+vS56KiHFwpXO9DiHHtovfb07vkRXgEQ+dGCj2St4ScZ2XY9CmFnlEGwQ+82PHqp3OhTznTdg88w71tk7TvHBOf69/OT8v8fHzLaNSFUW9lNTsnIqV2j0uj14rClJTzRwD4IYh16bedIabh3jUi+0/uTRp8fTfEMxg6wLMa6Mj8tihk7PMZS4iOVV8Y5FXp84a4G/rfw1zI/3Sadh4zdeZxNb7zFGVegFwu4KA55xxqW5mUoLgHDbABeNIUmsWDX/Q5DD3AbdvstoTn4CZOtxprdYnFHT7S93SuKZU8BROfxs8nOafCHLXjZdtymAMb8Q7c/z4APMFlWd+W937PMh7E0J/eVPcHIh+YsTLQ+c5JLiHL091uVAm0c2bmgpufxXLQ2Pap/SUAEsmddaOWXZzL1FedLhYla3lU19vDK/hBDD2NW8niDwuEk2W5CPf1W8T6zql9Bmjhi3GaM5hN5K0X1we1jRccNxONlcV+dDhbbCrjKl6zTg2k8XA+PAyPYuipNbu36QynM/NzwH5zXzlfcRqR2rmMDevvQXGwnqKxshtC3JpTO4nwQV47PkA7Z2uDFWry7viBqCHenJUOEBytumJf/PChHY9h6M5SebPB+cAAOAme2h0rW/9FHTM31J6mZc7UGbVcMbidL1mKIqku6y2CI4DNBuGdJVZX1B6SO4ltPkHL49510DBajGaxvtuvH49h6ABeSNE9cPZcdzqcdziO9l4NQjsHjjo/3jh6lDvZb6F2fjozJwoOndHRWwv++fEzO3pt3kK49Dj6in3yfuhp4fOmv8dOtBaPYugAb2iy+wDlB2s9WXvi9DZGOUBqvSiAXiDcHCQW03mcPCV8xahfKMbBdgRAi9lmWEs/5FD5cBTH637u5sh3w6MY+q0aNpzdTif+PBNownO8ENwRoAQust1q0O1xV0VI7bz6oaHY2yUlvMTk1FWE5lPv86PPZP9SSwdwuxZeK3JcIe6O7HazunAu3/Yy152FRuBRDP22hx5forjOLdB6hW0w3FL6mQL0106zOXZs4Lf3n4uZ4zsn5fPOxpiH7W5zXzsv0VKiUasyuWJA1YeHvXij9IVg16W/EXdg5kOxolYxeFr8b2x2H4oIVwytzue64ZtwV1si5ICeFkkHKa3WJk4xs0tGriDY4pU9+/VUyZSpGsN9PT9yyAj66S/rEu49rexmAwOvmfVX4zWzMeZ9V5xT6rArEBsg/Ibpoo/R0O0OZCuPivv2vUa4xUtLt4cFM3VFqw34Ty9iyza6upkWDBeDjSVOMddL1pqtHAOfzk3GJiw1DISWvpiX//E4v7bR+3cliABo24A2L2r0MB7D0AGEmfdSKgSWjQE70dwOK0+U4brzkzir5zs/s3biIDitcI0eKYhIoPebGXlmrTvJpR2Xd4vAlw4rW5LGYpk58hAa22mVl7YmQQLY5Lg4jkcxdIB12kx1YebSnIbZhQrt/NRy+2F9vACGzyi9qKJjpZJQlIjP5p7RW6UUico18ZW4rWLnYo3hvYV63h/QWvm16LmrgKBsfHQ6Ca/D2e+McHEjCxBv5gQEsG3DlL/HMfRLGqymIdblZwPhPNBu445lzRSeoJzSQFOXapNob17jee5H6CNA/47VBqKwNQijhtw36Y+XAXRtcJYQ4c5IZjRpHMtXt2Tw7nEQ3zwJZ5a2Bks7ilbtHJd5cTKaORLZMQmDtPTHMfRT22xNPnU5Fhk3BThngPUne+bvtreo6gocCGf+z+s+Ie1ofeeafBXTgYKR58SP9BvkBBxl+XsaufutsmIs43jEIGIw768rjPbiHmPTYSi9K6xoIPD95myx2mhId/sYei9ygvxSc4CikszGOpatMkj9OB5h0Ob0+tGjya12TpymnZCcKwWznnRjv2mt6NIYG9BwlpEvpMndBVdV1+2aia1TtIEqHHce1SzxOIYOiOczk2V71uBZr1AWiv9C/51cbg/0Q1hUK3QDyvprDTcfWV++eTw+/Uzzt/sG9pZyHPIDQh2fYaGV9W+zSqWVVomU/CJcAMsF1n5owvr6la+JO8uZMbsfZOqPYujLCNcy9PdUXNd15URYFqiuHWKWf0u/1SApMMeHzlmmplEQ2LijwkO/ezonl77Li74/nTNTNJrhI/lE5lEy1wcXeJllTNX8/rrEvPUA6PWIF83HAkY7p811TG8UWO1dG5/1+DaW6UVLFNRpiH2nae1phiZIwVK1pWRjA7Yj8G9gBqYoqfc1yazF5+jNUaRAWf/a5yOzTqjisu88dTyq1l/STBw9Ojm9qzhRop4DAvzQrw6PCecquLYrNQgD2nUvOM7uPz+PE5zNY8IWvAo1NOTSNL2D6XAoTTAngwAMs948L5hHDi9jQ+qm9VEaOuMyYWxF/nUCwim+VBF5P+sZYHN7HRWyPzVPRDyZiIuBIbyKhj4IfwLFZR31nrtroVddczaQSMnCRZBuvleomCCtpY/F1QrjvVHfUaxD6WLtvMqcLrX0TjyOodvAlhloMuHBIiN2LhGO0YVnTK8o3Ti7AR/Eolqg96QqjjXziLaotXyITVaDLV5dTvVtVKY8J6bRbvUUvyvDziFL9+U+LF71FsO084NPDYPRvmVXihUhAACym830dLvHMXQ7CEe3X+if0+6lnrkEZxXuyrnHZIFCEk4n0dDXzGITmcO+89Ckni7TS6Vo5zkcNfprhvy9CtAmWnf3QGd2fxozn4GevnJsnuhsjwsnJ28TmQw5oS+9502fx9Dh7eYs2XHm+rGdhzHUzleE8ex7grJC7cgXCPIi+7enTbRnwrZ2hWLKrF0JDH7LtIjShQrOfeOH2n50K8JFVvjbwY7DVXVw//fwR1B1z5aNeTasObCOWhYiewPkHsnQp28gwME7c/llB0pa2zy/ra8TFib8i2BZHw8US0x+5tbeKM3sglROKQ2eDnPKoSPSy+ufg7VzViVS92SEIYLdsCUWPlYGBe6BdprXF17WRLreekXC61rCauetzHnr09IfydBZRxnajC1RUctBEj1mMtV85ytP1I6Z8xWWhY+HhoXfSVxEACAMGfgIaJPbLmmy5cTbRCZqmoP6ckrjIT+JU46OHkx7JuShLbcc8I9GU8/l3f+uMB9K7TzhO08+B2SZesuQeSRDB1g/8OYajGTmsT+oNGGPFytq4cztMrp9wMZMHkK+idXBHDlzegeRxUePDo5cMIBww0Boar8DM5c4Fui50tuuMh2O9J8ftWtNhfV4tZvNPV/61vbwIxn6lLPR2US7nJn9SvStOz+bmUvtfETZxTwEI/dXxqUYd3ivhkq9vpH4rtDOY+KOIUWeyFpGtK8cAJdG6mjVDzMxpY6v0u62DcLtGWspsXMqEdC2VU9c/wMAAP//7V3nuqUqDE089/3feMz9QQsISgfdWfOd2U1pQhYpwCcJHSD06TbiTa6/KTBamMddELz1UDukMPJXk8plm1dsMzk/dYWrDPGc9oWp5pXTRkhEtpfsOh5iGZvJLiNw5zsflO8E+CexAbTWQyYFNeCkWKPuwtyGJzWhjm/mVJgOP4ktI53PErofGPdOYZKPeWYD3qaOE5/zrjUgU+SvBuE8+bLJw82AT/0ULQuf4WRpBuHEoq6GXsQI2f/sx9xUU9fdpmEnSQRIisiNqb27X2MqzMSkHx+saI0RXPaa0LRVGx8QOB94A9BsF3vmBcitJfSBPGQCWmRGDNC3oX3tfHf/qPJjpczt/VwEfLLAllszPPXEHqZwthtVerZh3zWGxYWZ64QpMLV/w0fVa1nmbHn0JvnX20OqlDqcHthIxkxeKAFuUlTpZZjelxL6nKH+pi5dizl1vGjn+v2+YN591tnclIRdlp3aFcQvsO9n9Tu9Q1uDea89uMi0KDdP79wvyuBvWwvwlUlKLVZr50UtP1v8JwJ2morBtJKnILtlhG623jyJhljlmjWQ3x2vNwi0846myBHg2rn7DtmvffIAAGtqz49sr8rlAm4dsUa52wEVt1rxsVLmyQ+0kFdHtcfgAhH23zzJx1vKWYrsCagZi7MaQnNat+jbMG1jer8Z38tN7uYIy+6k3so4d9LtqyMlA3EtrMRDO0vIM1oJXVmYeN8x66kRDZ5lu09FVXL+BO6+JO/Yj6AWoTipmbD8sNhoQIPZeubsy3DZv/Nibq8tghnSLlSJgOi8nTAsD4ozWvoIILh1sFV4jVya4bhgHdTEfE3KuwaW4y4kp1ERLGNjvy5p6f8uvvOntqHg7w7XsvKgM6edx67yfeclSJfKldmuOYevaecGrK7oxsLOBD2qbCvN7WVkDnozmcFPSSsL53nC+e8fUORgldqREJ1I6yC51FK25T50gIFaOgzq2F+SVUVwBuvU2uL7ppnnVzZqsiN1ln/D87snddC7wiWv6giWjxUgYcXi2s3dFCJG//fNRYE5+rv+5esStpJ7BXfIcefkwNeLJwRFW4uUMQOS3QsiXq7I/TH/cITNXVahydFhAw1d/Z2Vp8s8Atefvj0eo+vHNBJv0lvzxOY9C9fvB+qM3Gc+R3q4d55SXue3y7UP3JXIiM5vjzLuS39eEpuS0zPw7eeQiakNj4B4PM70oj2Ff0mRHhMmaS+J57Wc0A3I+CA6Sl3rQslxpbxaqRhbeO43bAlJmCloHoO+b5qstJzOVfd0Z46JPZWG0/r5FbFNZJ6Qe83VXxxzXUBw+MqrB9IjWrR0QSkqG9ma2+uTKMrOjIHjgKppbWzYEF6/12SGN9GZWxC6CcAZpKPX6w4rptfFmEPmnmm1UHDPbUIlcq2p3WixXAI3Fsi34BvtHMNf2Wce3nIHbq6/yxkDk1uJr/459fhnvPyCSJbM37m9aymcHx1gT/Ew2skz45524HzLrJlEHDnaYwo3E3495FHPJlNr67cgdADnGhhhen9sY2Kv28ulEkHeBm6oxuBzCWrMunXmyoJ9228SzilnSOqh7y6eUg7x3iOqnXsphBVj7hL9OWfKYO7xa8InHCYQLpj0/Qj4zsGxp/8KUVKA1WRenNYCEwoi0577p25MAUntHGALQnei2w6C3mZ33QDZzbztaJw98zBinB/CAsmAjB6o13qcgdiPGUFHch1UKvTeYPBl7mSrpSCqcm6cxGYumPyUYyfIAZctmw6WgQjGA+yprffAjHrl2K3yE/M65lwYX0zrcmneqSzIpn+3890GhO7ATe+9OaNYi0gpWT8Kzl8jcW3uCosAm/f0enxc87LfRMctM4snU6ovg2eC4J+9tOnyTWsp0Htv/MiqRWotN+8Ea1uP7a71/yLBz0OdJRCA8ekKTn/Q0rNqdfGb64l4xkRlOaGHBsCKI2AfYbX0V2OuwGT67vQlSX4u+c+NjHbeEI1xlxsFFymh4VOduzJVghKferx0LjagvJVS89S8+1XGylXI15z/Hq7bwYa/vx8tdVha/5WyPkOLvkXEyEdmdoKHC/ZLYIt16OF354B16f7kJjPhX1E6HnDpP5PGS830wcRijCgLB9/itT67/Dv9JtctQ+Fv9RMuM70IzfPhJ25VrIuOeAlyqmatu9wVtq41eg7LWZSYzodbf0oSXGRu94qAAMfzMraCFAEPzGLrdXu5P/zeXUu3/zLxQRlVBqeBIAAgVQruanlfdqMhci9OrHA8ha6r6O1JW16OqT38K0RkLV5P0RWfYLsMlbXGjCKzluADeCLvxPdOS8fg+3fjjeUnAK0Zw6MWOwUI5RHvKYGjJwgY9/F5WGxy982OXsjXIC19/ZN+F7wJb/gsKPHXL/fi69S8A7UCi4/ceUevqVgz2x44cd5nXea+dj4lU4a3HVByi1R/jbYt6ynhpMrT0tfgE8/DQ4V2DrBcO1dl0ApkyWCJXYNKlOGRb8JfSOi+n5OC1xP6mk5tVOoGz7sNMyrAzKv2c+XDmOBo1Z7dkcH3DCGr5yJsw9zCOrtSrZEkTO/+F39m5uYuRjsHmDiN6YuciWdO6AObVCHGjlZ9L3oM1fJpeCfsNtu0Zve6MpEZ+wWb5CwPirvDCX03m0FEOF7H6LVEUA+rixitg1hfesp+VfMG1mhqeM5JBc28YozWUmaMWOoXjzykGs7/tpXRc+gYI++01W8zeZmNYW5+HseAS5SFCfPld2DoGvAKWAWyYMBwr52pSoF2DrDah54YZFYok/Kl91/Chi6jrSfU8wsXniQVXWecareuYykvMaMfGR+6dqZl51LmMWjZeyrHf+7/5vppcIITK2TkqxvEJ8hPGibfEa40x+XoVsx0vdGb8XbN9GdRZ27fbHJjJv/+8ZRxBCE4ZDXzskotIXQjeHm3j7m31WX9tHS7526MpLbqCQArhYLthwDebOpRGxjiR3/GzeFDfWA6J6t8fnaxVosFI0QzBX+9eZvvPJAZWfCXZ71ozfmQfphO0Fm1eud5n99bcVf2GmfWduZ2DbsuvUjJMHU5ipe/7WNyZ24CXgWCvlq6smLsfjLUGoHJNk69LUNW28VU3x7V8rRT5vU1fQQHtZ7un1SUfkkvixjwDZc/dP7S+qavD8tAbBL8IhIfXtTrc/UmwbYwghhGyN6t9xnJdQUw2WKXqRVWa9tla/Y6gq5+dADTtgiAzFS2zfhbWxBvm1cmxLtbLmtx6eBBMBx1HtjMdHQteg/2CKexkXiJBu3ct4JdF26ivSae+FW3CBx9j7rWYEG7yCoUK4jvpvpN9Kl6ycN0mvmWpG784Yd5kxHDomeHNWrnf1WFnAwCFSB3UHvgCWo1C1EJSKPVDQuaUbmOSLwrMPY+CHQg9ltTk6VufGomXgBDshSY3E3BwjyqH4Hrc9dAu1iiOZWIfXYt63mEMlzWT8/imkP4G/lNa66z63rDhNB9thOebg3u3z9n6UIF0lp6o2ekIMe9kFO+3nVwR4jv2zoI6MpJbKywcUVscOLxvCNcCvsQ+s0IIFKEbmZgPR7dgQj/rOajUxymrcfEZQrDZhcPcOc8I0L9RjJtRch0rrnQPV/e9x/UyN8RMQIbAy9lMub2e/dHtrUL1EKY0O6CkY5/lZHaopWse9aDK8dl8gCsmLuQvdMKTFuqTyXjfj1aStqvlvnP1M0vj9DfsRcMvRwH0L/Taul2ODG51hqpvw+hh5IpGLxEAIQESO0PjhsLnbmRCY5uCAu6p8bOfecIuqNtD3OqGkG4BcWF5GqbG68fyRuJNcmk+kT4kdmSg0t4/cr9576dJV6LYIwx8wcF4/Ihs8fqFsFTbMLEZ3bah+dvmo/C9q7HaIkxQyI951G5mcyxe0xUXEu/GIf1LLplp7slhF4kjJgJi7Qy3fzwUDWw2RSCaqVjTcbbaBU++CRnqVMyJf/CyR4FpeSzXujT0shHHLJIjsAVERTL+5yPK7GPNJLclo2NMQopKeUxSCGcjzTUx5YJ3VTETUb3GFvIWivurKpJcyxa019GpiuPSq2BKSs5IeXZxDpE6i/T0KNDzwrP+D0nkW6PDr50ADUTSgjncbgr+FqBVLMHwhDcJu7OfOO+c6M5EoDv823oJ6prlJoAMfh8f8dVt8i5q5W+yJY12jx64kynP6OITVhW9Fgk01dDOTCzRKmWQPvitPT2nF5CWUnkaOdV6Zp23r2B0CgICISsUzCzu1viVo/1Jvew/OxzzKjWW0s/kOAfALjouFVYKyqddu4+Q6QUq1vJFgIM1yY6Q+/my06vLOP7FRzp31qqd93A9fqU3TwG7f+xvpBjkWi2lAQp2Tk47uml9rT0PQwHSbxVO7cTdzz26wA3wONgm0SRm/91Wke/ntBzwAbFCcZM3k9LR3oSrL0Q5hGj0BBjJYLdOMQ7ArKWZgaD2VzJSfXrJRsL0KzCDS2/f0aa34Lh9LmsSP41/ejdtxGYEUGe9rvO6hqOT9aiRiuD9kc6YuKyD5mHtq2MqzfdSOYWuqtgqKXruvRYdrfIh97gHNTt0EVLB6eZzuGAmhKPJHPzWjagpsIzFSAQIVuq9mBv61yh9n6SuHtw50P2fz5Nj+oNT+nmuRwsrfv8CUGHmYB4PlctvYySY1OrHa0RPVBdp04kOBVKe1J/AaH3wJqNZQJ3UwoX9xg6/ZGo/WhVtwvWbp3iSdCGBvJyGPHON5K5GlH3hC2lJvP9S2yAYLea439Dc/T7ygzvRD1KS4LqVEZdx7SFIGestI+pMC+zx7tLOa9+d6Xo9ax20c5byPx1GrqG5Rx9XnrLuvMQ0wnd25q65L4gjbNXgcAR+x7IbZn6oR0XLvuIdQ+M9CwHMpUlnNQFrt/uRckFBn/xX1ciNGT7361BWZvYbhDpB2vqcvOkG+R16dSkJL23YhtxXQMEAEPiR9819GsOZ6m452qCIjh7aOlgZkwm5d2FWr8y2rrf5HpPTGNwycuYqQj0unPiKz/8eyt8KLl1DK+7+7vcG3ls41fPcvMzN9zy30Ks7P+1kkHHfFDKWpMbAdDD0x1BB3m9wxSwBs/lrmjzjj7nVUAARerH0fW5viMojkMLayKAE/WyH2qYsaEStocOVEgFW30LMe3M/34Voq1OTtxeJnAYfZv9+KLkm3drPij+oXdrO/rmOncYsBUvx7UfzOz/HSITiIK4msJZXTf4bReuS0e4boT0NuSWfkQtCWCvc89rMchbsM9pa4Uwwv3pJKpcIMaOrliFMfNxmyqZ99qHfnP9bMT1JC0Qo0omARL5HlSmvac057Bu40X/eOuPy+EpH0Myrsen/c+j0SPMkNWB7p7yQjAOerICfQG59Sie3HDf+VcaqyPep6EzELhlbNCwjM0cqODvM5PSUjIj+rqAm0wHpG6rsF4zD8FtCE47V9pN1tpe+/gSVEV6pk/kfx/rRATwuB9uRhPW9pi6p3N/F9cckbWxf817YIas4nO+Y/1dZxk7vlwuvpaeki1vaO9hWnfmdQCgt3p9Q2vNx9KtX6vBxqEJkPtrfL4q6BCHHNe6F8ib4HLjbA6WGTLJn0pdSN3NxILvHhLN+S4nrYHIj+MvHQRvpnAHRQjKmO3NvThfX46Mmw8z7rwuFhlQM1WGEowpT4GOzrd63a1xNsFUQu/uPUSwBHwCNB+vqoLj6DroohjlZxzpv2R6b7CRzL5wTG50HHtm2HoZvRnyQsJivvZ18rHPFNGSelJLT9/VH9d00fZbVT40hwpN7rsNoUYDrs0nc/skOweRfQ1zNXQa0H8tqUOXzWb8neNiA54LoBlz6U4xAuw11M556VMhVKFncqocQtD7d2NcBF8qMLiEb5EodE9ZtpXsuFyhG/Z/TmTcZ2zOl26InPxr+lOM1PNT26mLjSDz4vqZyPZjp5bZD6/2oRso6iVN7G2+dHvwQ3Ly0SKA7kycsXT7krmxR975zlPCJscjOQpK4UL3PqWaezI0KCmG32F4Q8IWGksn/BB7rhT5PZHmNeFGOJNGXAvkPl2lO/qT7RGa6/hew8uvtOGgnW+rFRuLrW0QZqiEi5EtqYj3UZS1AxXySIJcOO0ceSKCCD5B6ADgL2ODBtOSXpf9bHfv0atmUqOa9lx959ernlKZgSsVxggycVOylDH7Q4qsI7/fppdz712aY1rWc02kcopOXnuSml+im5K0g8wkxcwBw8kT8gvjc66BZbRTOmNBMPOtwQNrB1N7DZmrG7VmLr7zRywg9AE9Fx33EmlSb9TSDwT4Z0daaHB+D7ySI0S0c//EqhUaeD72LdnWsG4IBfWMnV3amdtH9O0nm09fGLebcZiZEnjZhtW8LUpvciflOrLDL3aEbl/sQeZ1bWfvevlGMrMwf+vXkWmTWsZG8KBcP8Dsteu6DxcP0ZxzSldQgqf88sDLr7TycFc4irzbY8rSpwV+EBT5u/zAvgJF7vG27tUTQlIc9WT98trYmrt6pIwog4EATQG8JfmsQbQTVqHX0aK/gNds/foI/bB7bTZzJfUntBL+kzG8DDHr8c7rzp/Qr2UK0EcezUNhOS2RBxp8oy6VwKynh3ZCn18PjL6NX9eit5L+lgJ+6m/Wbx0v/U3ttQVBte5ctPMsLPOhj5KRhEpLB6hfxmY2mjkOhH8nlwyjzJJ94ZO5ER4UDPK413T/2g1Ey5wsp+F6uZOtI7bi3rBIXXZa5LEBdw0x36HjTi1ly9jsBCZSluxBUNr4aRvIbvPFdjLvUyP1mDw/oeAB0wm9006tcXAtHaBpGRuC2d8d1SEwuZknf3tKYUSAkEuzRBvYTcAA+P7Q4vLNqFBNHrXlouC1CmiPIE7PM2ocMS3TwtL7Ug2AnhMhjB6oz6/kvtQ1qn3QxDDor6ip3fphfQkUDJmj0c53KdjmeO1e7klYv1njmelozFZ3Wn407Cad4ASEwljVId/EtyOZcxSVL8dcjom/FvT1nnTH1ZOQa16gyOddegwmPzpfeg6osGqpB52ebNzm/SIM7d52O8tNB9Gm2GDZ2hijk1rG1ihXEQAPADxR7+wUzYnlcFePmR2TlWOgr24rlMytYvf1xNbNrBqINGGVn/zVq3I9x0M6rWu3uJM3oekDG/1Q9zcjL1iRzz+N3eivpjzGI4LmzPDdKrUxXqKhFzxRzeBdtHQwGjoPyrgz2W3U80wgnP7v06S+s+K4GVzzfOHEgrvpur9QqkxLt3d5L/Hfn2aS5ppYWf2J90NmPwFrahffeRWm7+Xud9fBISHUfmb68+5xMVKP1Skc+Dn1bot6Uvu1swMyvb0wN0SOlh3Op35b/hXB6p9WOzfg/aw2Ui8X8ztgvvHm5oqssZPqkBla+tPcISPnVvR5MmWOnCSwv+/cPsKdZWAjpmnobaKh4m6jpRPA2RiJh8kZY0m64Qw9r1dhwbUKSlJbN27s2M/dtNg792z4F94nyIIfUcE/m19j5uGa2JCdpKVZ2+Fkgapp7zKGmnpJQEZMSy/DCjJ/mKI0FGTQrnAEAKR3Kfmw3Fhgcp/YmprUTyC14Uxl1mpYIhzQYrquY9DUfP9ZVPBtXrn9/fHGufjw4NoLhth6C7RdHuBzOZpLGk2gPQISIdySOb+kK4Zyk6UjK4PO685J9/tt+uo4zCP0aFs+NXD7YDHZ1PnQXDEQQc8cQ+9cJLOnwmRdZ665lvr2TsPdl2YL7mpt1tzil1wvGAoCfBgHYX9rsUDNxl3ePbR0E5xTon0XJs9fX4t6GwgN0s7VJPbsl+DG+NTWr1EYLZ1Imd4btPQDEa6n8daw1phWsDIB+ecOebUmUcMPgo5gdiW6fheXnt98WGT/2w8+p+9ZyBonTFHieHTWzpU2R/r165hM6C0NmvuQ09dRi+ndkGR0G8K55pznlqCA1OG5iE9+66fvYukAXPO884kLhsD4y4mM4bE8lqMmx73gO8uafOkDqmeCtUoU9dnK/Mj8iAfB9crImtpP9eEzVpA0pke5tyEVRfp8m4vsJdV5anJHgAMQCOnmvPRR4AFM7q2N2tSqh2cQpAirjir0jjJcAKG5eWaeO4CPGrU/m57eELQVM2zL5iqzU9eMvIJ4Iff0m5dd59+kifzorJ0D085VRh3T3hOL16E/+73KEZFabFycAE1r09VZAYsPC2Da7cWEiKHeIUz7y7hq5xy9+vD7BKWvpXcof8rqVGqJwujb2+9a8ZRmfp71smbEJjJE/lMGqFPk3oQNNpaZ0MQ6C9KarFq80ELqqEm9WwkzwCQDU8O5IdF+jQBC5AJPOw++A/vLdxHatOzkBnyLRfdW8CbYrCCP/qZwDPsBuCvIPB+VDgx9mlp3YUra1E6sXNac+V0sJPQ1DWsGsjlErYbUzYA7Kk33rfDEASdvdKtuUX8W/CrQEZh1N91fX2ZYHRDpPRGhM2qfkXItyagW7uenb1jZr4VpV+2cAIhO52f9Icwl9GVte7VjnZ5vpTw5XG12B9OcZEndK80PRHQKnuHrg7Ui/J0EHteBAeJxBfvUC/XE3IkXqo0eSufRLaV6MiezWVdvMgcCtUyte6DD9pi6Uxxdvnm6oxSpBxbPuWXDGaOhH0eopc/yfDEQE7fe2Ph+BxbE4Gvnxn8eR+wXTLx/H9L1xmCy01nfuPOnE2r/XxlmRzzcX9em/RKAFqIjAuE4mf+WYrPE5H7VFjpOzwquNEsTWx65CZDjvmx/fcQ4geis7eTN5n+0Lws8YCBy303MPXHhWaaljx0ygTy4ySz0pfcsQft1HXrViLPOjXYOp/uC5wfw+WGwQVCcQdjSqZbv8ET0aFECr/5ENkQXIOePvAlMGo+R025zYXSBBjV5OF8FtYVqWW2Hj5S7GLhYxvbakDTbS9ibzGvh7QjXCwRAcCrt/Ad95wZTCL3/oOEz3Tuf38O9mtRbot4RAPAI93lPXVmZPr9b99XQBtBr0AveDj+Ke16I1Xux3JeeIP2rFKsnqhFknpsmv4vCNefdmtuYW39bBs7R0O2Ms3dj35F6HkypqqPeUTWiMR9dB2A9/CA3F7Tum/fhbbFKgmFwvnMAIXOOMKwvFiS4n11Ll/LCe2Ul7PPU68g8lgJiZzL3TO0pnvkNITltp7jxg8QM06d40OtvitBNZGnFQ0e1gxygO6rV5dJY88is/Zp9WOfYVfuIqV8YWOuALD6EmAE6FrMSo7D2SfI65JeZB47akEEyVuAnGTIPqnSo3+eXqubppe9p95mbIDg8UK87r0womjD9vKndYOrWr89ofcptmvqpO8NB5ZvGmAAWPBDo7ODvekzCzd5dtY2GFtPN3iig98E7xIQj42tcOw/W5NfnXLc/7kpc6lNXreImPWtbw7kHczvhbmTuEkDofvgKkF5zHlumZjOGN/bpGiwi9NGNG2ogebfYoxXZGCq535yZTnqjd38oJMpC8UtyxSoB6H3leQL+nWP0jUwbRPTH3S0IIUZpbAPGAYLdX6GOit4v+Mqf1HUC5Gvw8dQx8q65NBE5UHp7KXLu6UHm/bVzAj+qPZU3fKFbZ2EzDX0trJZOAH9Q3vGMue5AhH+eM/6BzBOXZJE6gb+kNZFOf5SPkPtyJNK73DSKWMN0c7TZu/Racadt3PykrY7xu5/cMt9AXc20cVsPuvTYu0Sw9C3NhvPadjIHG9XerdcZv7mY2j287LS1UuQIYabNGy0dCU6oN70fxwGn7mg2HpC7+LtAJWjTH4GMdNc801XpziTBirzIdbDn5/INAdj7ibjxWmHlGwXyXuBNkzEyMQnDotp9U3ta4r+nzVqwICguPksbN2yeSP0adWaD5BBZoExZdn8Hwj91tJvr1KFjPCgaFlt2Ganbz5VImP77g89ufgvja5z7/N8p3B4MUV1ycAFyd7vrteYy5u7SdJ+ub91mR0f5AP6NjGqP5cnB7O3v7PZFmELo5d1CCf1+c+QyAjFXnkTwVxHA4UzvBKeVD+SK8pRxWW4F195kgMH7YeyDwWsZQqNxWTF/aRLxbek1rnaxgMLSFO5R77gZSeZ9xwYBgD1J7ej9tMo3kPn2aHBY4EPPsTuPiMkuJ3WCBtM7gj7AhZH5cvQSNWORW4qa4CfBOzH3ybXlFuuXNSkqSdnVT1ddlppM0OzVXhGPlIQ5VKvYb/4bY38eoVP4oULzDZOpRsqh7ad+aoeaMoXXkDrCcejJZCJ09Te6WRm6GzEEr8UXxscoE3tN+vFrx2nnQ0ztt0vUYvhCL8rDor3c/QbOiS+OXVeXb5nJl5+dXpybnqWuOjf9i5B2/A3wkfpWtNZhXv375UQ6OcSj+wYyPpnL1D6G1yxbWxJzqqPezVI2hNqod3VkxHk6PT2VTH8DWwVkrAgmYHk/H4BedRoR3jjq2vBGPBSZ91VjzBI10c7vMElDp+DT/QO5+3Xc40nkqq3zyp9ecYCLLvD1mNXby9fhBWT+Be3tl/HV5ze7Tp316qZ0CUAfvHL0X6JGOg6JUhvIZCxN/mKHi2BalLsfnfzcuneaauz7Hgsskr/qDGuXsrmod73QYpsguQhetKKsdYy+pJqvwl1Uypdlas+6jWgnl+a9DbCWzM0sbcwZ5yc8H7ySwFdnjwkMJ/Qrd+W3bon5+c6E/ZxLXllAm9+PSlI/NKOfWHdU63hoNl/i35iP2nH+8WapRqw9f0GWriDzevN5esrVVA9EwONQ5vauD73W1P6bmKKh80nS0/yq9yO7J/rCVczYdiqbIXUCBPq3a+dkT+pHiL0UvxyFf2cd2yL+YzLeReYAvZ+SiWhHs+a8q9vcHLwSauZPkUgcv6WiDyd0t+SLwN90vN96zVJc56SZYlhfZoLkjoogOQDlT6cDupzKNhwvKOJOKO0OXLya97s2eYkL7OvY3cT+nFsfv7k7dOXoGwRHT6eo/WKve8a0KPcD0PI5aULkM3uIvB+B+Pw0PHY0oYegmyyeehvX0k1nPH/6tqZ3gL2p5TvAyPvQYlXyJHoYVURU3mN2JPvo9Osj2hmZD11v/rSwOVnAoqu/gDkmd92iCIoQzc5BjtDdAzMEFz7CME7epVhYlsJfnTB1/mVD6iqyk6B00xkE7U8HvZTtbbxpGkU4fzhiJG9wF3CW6+IS5GMHrbwPSbf7zcma2WeTeSnE5D4UnPiQvaOAo43GbB4pekQf9wx1LWfw3s9XfTr16VaH4fqC0aZI/VBmpZrlcFOQYOxfdJZuiFwP4q9EmvfEqHYaTeTP1/Ygc31z74h2YGQuQXBV2GZjmZAMlSBCd0CZR/Tmvab9SPxWeq37c+97vAJdnqdm4prd4NQE94DzPK0bYjtgpOG3LKggBSHxfOzYVn3IvM+YdX7zARHtBIzMe2DHpzkW2xB6DGj/C0Dmd2bLh5Ds9aun2St9nxKm9aeyEFdNmepDZCwJdYe42OVse6rpESBsalIQCKqxi0+75p5iZaK0IBBEtHfWzJU+wzXzXvLlt0h9a0KPIUny4Hz06r26yAXWayKnOPG79+mOhMFVhMoVQFAf+W6D5PSefeeuke9R67uLKwCI/S4QvAMjxf76iUKngRkGwfVCd785w2/x+fsI/Qkx0z0AABHayQALwfM0eR4Tya/xP/vp2qtIBcipCUV95DttHfnOEQnXQhJSF7wOu5L5sy+8bqFYVZmMVt47CA4AYJTf/MfIHOCDhJ5CKhgPQGv17HfPD0/uRGK60LyPU0fvHXrWUEzqB8IB2qe+IzHGNHFexx3LLBDcYITM75FmTqTPNL7SZI5/A8ic4GGf9hb4LtlfwM8Q+h2iAXlseZ2B8b3zdfRcozb3nXTC33GoNApJ/VBqet1BMDMRNbMnouIFgg3xXjKfEy1vbxgU0a7IfITfHCBqQfwBCKEnECVi7p+3pnvUa9H1ZzKR9+4gl5I+ZSLfgU69Rn2zNWIUvEZ/FAj2xo5kPiYArn6ZGo9ohwER7Y7MRy1R20huToIQegHu/POK4PuQL6IKrgNUZvznU9Qn4XbMCZkL3oHdxHxJeXL86q15uBtcRHvPGDgbBAejyDx0qv4OhNA7wO2Eh9bq3NRFUaV1HDoddeaqtgDAwF7KSk3pTG6MFwLBttgx+K0fmceurR+VBDA4ov1f/yA4gRD6EPRwNWlS//tD+AenixkxK8V0Bpzfc4dG+vr7UuONi9wP0Qmj5tLb/AgEMzCKzMdFsdfkwdfp1EPtBHcM3daV6AScIhV+S0cXQt8ZqFaC/R0I/wAATm3URxeZ3zLDL+7q2ePvmrKEywlmYYYI39NfzlE32gyZd49o52vN6R8g395zCLAsIvkjEELfHdqXZczvduOZSF9NmcKrunVXBjaaw3XZX6l1QSBYif2JHKCZzHtHtBtfoQmC49t3/h7nDoUQ+gtgNp4BHWhKZ2zz2sS944pVATdLuIathN87CNkLVmMWkbfl1eAzRwCzE1zXPdo9zZyROfsdAHYTVK+FEPpLwLeIPanzGvWpjFkehSvmekEudluONofIAe4mxI93WjLvfODKhcxHbB6TACL84ixBCP1FMKT+93fAv5OASvd939rOfa+bh7/GJvZbVUcwHb9J5vXrzAFmkPm/i2Y+doKeWFv8IxBCfxk8TR2gjNRLouKaR1wPW1p66MdSFU3+20hN6mblN+resnxK16bcZazXlxsy7wUCIDgBzhMITncEtvt5AiZujbsRhNDfiGCdevSEthw+DYNStmTDMjEeGh/EJ/9uPLliVuTb894WMm8pIyGowDfjM29N0Cbs7wCHS/av/kUqVxBCfyl4oNwBDceuDos0TSUarlEfgxwiEGLfE8bSskosryfz6z4OPXEh805EDkDsoJVIANxMiA9d8DYYUketqV/M76EsiJncp4+5VnHdz6SwvXHiB4HB6+x8Z6URvzbWC/uTuT0GdQiZ/9NEvnpE/R6ZAwihvx42UE771JWmzraSy8ESUq9BOBHoNyN5Ms3nlHjrmMPNwJ/catE7c0laj/xq0yC9trx7AByQM7NvckTk6j61CkLoXwDzqQMAnHrvd/1Den/Y1/X6uQWuyW3MdGMMUpMYDF5H5bVD95tJ5vfXju0phHj1mTcnqv7zyXyDHu8O1/g5CKF/BSz6HUCPL+839t780FtqL8E+FSglrdpSj3QVhCbv3NYNy/QGWbreVz4+b4AImfcKfrtsGLPHOFR4Qw/sDyH0DyFc0qb2fo+I15hvfaexWIx3xrKXNHtKPFWZXgvveypnLDRjd/SI4Oh3fX5fLcmfAJRQeAOZv2UWuDmE0L8GY37/Qzjh1MtIiDksf2XUfCvkraenpKdm+raW3YvIAXKWYdZwnSNz6HvQCifz8x/PraKE+PhVHX5Fxl0hhP5FIAASwPF3AJ0Ep3KqK2IPYQbR67X0O+wbprZvyXz0tBB8Hb3aBPX/Lr0CTV5r5V2PQDVkfpqzzMvK5CWUKtDlJ1HdSyCE/lVoUocD4YADiEiPwSBYDmB/NqlCWCkza4n9th4issZgj+VoKeTsglixFmAYmavd31wke48okIdMh6X9TQihfxlmLB8IQGoDGqJQU/+VAbAfiQvGYcXSsB5m9nQaz/2XAAAP4zPvSeZswxjrL58xnkrNhia6/Vdk2hVC6D8A1H51OsySNk7qYtISfAcriPz5Hq5lDyJCQ2LHAYAdzzP3yPyEoUQeLW9hJcJlGj8GIfRfASq/2oEI5z/tUwdSHjpKDNMt48q2KYhgM+ytlech18DuTcNHbRhjA2pXkXltQj/K5iCE/nNAMMFyp3aHEVMc0F0EsCl31qyMNtiyQoIOWBH5n38PBu+pOs8wRUJUZnZjYu+BXTeMycTv0rkQ+u/BBssdcAABnafyq6MZtPiCsXtnOghnI788vL+PPU3s/RFzjF3IfNc15oJpEEL/RfBgOTwATm1zJ3Jm+BvsNbyfzAl7lVZQj94k+gYij+VLqL4ZQubGtH4aE/ubxg+yv9+EEPoPwwuW05NyJFIqPKUHBTd672ed36ckgn5YTear8wdQGrm5GfEA+EM1+e5J5tZfrr+chWaD2u+SOIcQ+q/DBMsRAsGpJ+Z8Zh4fKOG3+xG74AtYTaTl+T8xU/kIIW8GrTTz/sFvC8lc0A1C6AIAMCb4Aw7UfnVztjoZ713eFFpC0QQtGKVnrdbIw5SVa+sZxrwOh9bKj55L0szObycA9NgwZgf8tqYuhC5QMMFyqGb/J+j1p2r6zi4sX7cehrCNWQ0nNoK3Y4Qo3sdPXqOZu41SzIYx798s5gEt22KYtvlhThdCFzhYWaFObLPjnQ90Mv/VjZonUz3/fInqrcpRsCNGy9xqTuiac2jdystDrSBF6w4zk+wuBbRR7JPWlwumQghdcIURJKTVdm6Ct/IpJQT6Er2DWbuLl29zV6YL1mKG4rSOyFO2pzIyBx741n3XN7Ykbcco9i4BcT+snoMQuuAGNgr+7w8IFan7G9HE0HMrWX/P+ViqGLxyH6VgD8wSsevN65n7rV9KoL61C0sQ+x55qjPefqOY1JYS2XhacPt9CKEL7mF868ehtXXmWze4yIYepF4icGJiUgnKDcXWpzFboLbkt0tZyfi6Ql95D1xM7Hzsfml0XKf2vwghdMEzmG8djW+dwB3HGo1Ha1lYWkrmqfwQMJHWl0TZDlghRteROZ9A1vckMgWxvnIdxd5eQJuB2/XNDlie+8fw22QOIIQuKAAaSYMIqHeV845jjZrifbP5FZyI74RM361sJOCuHbtouLPTKOmDvFd7Vw+NYNcvHpGHK1U2h3BzFYTQBWUwMkdH35ot5rygOYCEzMgh7Cc8XVcnrMYspfsOVsnX1nzHlTu/l/hTVUbaeoOY3r5ygPDIU+/H70ImAULognogghJKdAAhuaC5l6NWLry/5g6rZeO+RF6GS5/gvvLj6Gde15ldo9iTJfkW2OqAX4YQuqAJnhkeCc5TOdhtONrH5QhHrizZvUlWy8Q3Bbr5OV+frI3isL7yQx+K1NdXDvByE3uI7Lja1b11LwihC9rBgubMhjRAoHaTxB2Ifa+V6jP99ylXwk5isFdZ5tYp7FPxNVfkBb2hDnrrvBwtGcUeK9eXsVOvXgMhdEE/GMFFLmjO7F1BSFHZModqc3NY40nfeZ32KPQuy/y6ZfSP2FK0ngU1ZH6e2tV1BsmzyfRODz8XRQtl3ljB/hBCF3QHakFmo+H1eevcDO8vLlupR6QEgYTJjcAIsTtXlDuWcfGfQf/Q/tzu55UHRTAbxZh9ITC8wJanY96jEQuqzZyQvKmaoyCELhgG61//M9HwemMaVMvdQlK/wzhKTRmihcRr8AVrgz/BDNkEPeK8i17v6idnxbEnpNGp8zdkToVa7caIeTSSdUL299sQQheMBYLeaQ4BCdzZzgRgT3F74M551CokXovRonSmqPZ7QeaacwRrWvd2ehvsK8dwPvp2TuPEXULqb693JwihC8aDBc1ZMzwRi9+5J/aZQWSCcnyJzJ/g0zs6P7kOeFPvO2dKcD3q9HKkMfgDY6dGK0VxhPsXZjJ9IIQumAdD7DxwjsitssmMiC8ZukL+/fEFs/ozYqov+UQOTivvdrzppQjBueWXfR4SPfytgXAGdwPXq9ubK9kfQuiCJTCBc0iofeqG2ClUg9ry6ZfUz2KmyNxDPHPPeCTUjEWvK1/5mCK4CHZF5tdsbnr1Hg3ZFXYsh3UbEavwUgihC9YCtdDUG9OQjYoPouYaGXld0N07sEoW7i6Dbdgbai19xIlo10z9CHYhcwB4GqMfrXQhhNAF6xH62JGsICMTPDdY1f4lTX6l6Ntd7F76AV+CNirgjWXIzesmCA5jF2aktX1jN6FkjczvQAhdsA8CYnfntMJUYv8qqa8We7vlHz5n9+zZErSRG8Owglwi2KNaeXm6yxu9OwIiNzvwCQBACF2wI1jwHBIG2joMJ/avkbqIuzwQgAt241u1jiJynam3rryFyF//oBMViDrIDZF33kr35RBCF+wN7WNH1IdcEDvVzRD7IFKvwU4TgZ1k3OqyuG4S2qO5j5yZ1nvvuR6CR7CfJxAQ4K15PaOjv0Yjvyskb3M7u2Lv3ffofScAEEIXvAFm3BIAIQL+8bXs5LT2Ddg0R7aMKuaucm0vn33wDfeLH5ooRh/FydaV50ewb9C5qxDTrIPfrMmcXcvM6Bj+lkpaIIQueBE8hUkLYkvqzjRvsakMLPEWvE1m7VbeaBsbhc/6xRmRj6xA4CtPR7C35TGuDpkJez7tkLSDdJDTdTjZKiudQAhd8FaEfnagq78dAJ52oVsJkVcTwYLc1FxwYMR6CBvBrqPX7Y5vd9lWBol0r0cswXDiE9esQzJHIezhEEIXvB/azw4ImtzBnvJmA+lwf8397dhOPnuW3Mj68RkFZlo56cC3sHj3KAgSKapP7sV25sy+4j5t0bB3ghC64FtAzd2IAH+oeTwSSGcg5N4F28huXpCDmdSR6Yczifxk5nVvB7oSZJL6xdyek0tMu2YkjiFViy97ZwihC76HQAEjcIF0nsakyR7Yi6AMW8jyhDndfBcqmEMREjmYYM0nE/sTYncyBk8mfEfY8d8lCO29EEIXfBuXQDr9ajetUdqP3bjGQAj+EcvkOydw4MFs6ILd+HUz4AW8GT+5/mFEUWwFQzN34MO+EDeyr8VE/jUIoQt+B1yZscF0oCKNzVIirVEpng9YXUjeYqrs9zgqIHFuTp9NSNa4w4ncvb/EjtUg6ieIEDVvgJSmLYT9eQihC34X6MgdQAXUAYDdrYtORvBhYB2AEPxIhCTOTek7nK51CXazoeyuWOEeNumkGJBxdEDcGBK2aNgCH0LoAoEBF6QAAH/61QhpdliMv+tYACH6IpgYRgBI+sEBKuK9RsDbFIbvexDf2CjeFXz/Pgb1DFX7C3EHyQgEBkLoAkEIbsVkbEN6IxsjYu0udUaLB7hG0Ru8nORVpEEZh4Qbl8ZM5+ot6o+MyGZHpT+BBbsRneAReOCaobCy1qKQCEoLJ5IcO9Rd8BoIoQsEdwhdkIjMlOo0ePeKHskbUORd7OMqGMKOfR97b+Ddg/51l73Qrf+b3YDmJbh5F7CJGrGT0DzELAnRJWDmG/FrC8ZACF0gKEXIPaEPHoCRPOhd7NjNoUbH/n/EwAnAI7ckFciQuN13HrntpnU/IUbmAJ51wdKzrbOpt5C2YD6E0AWCXuBE7x0ugVdt3dPqwS6fuyyLv2iD7P3Fph3gzkYeMxTcxljFSVttGob+d3dlehv0ygfn0+dWBglKE+wFIXSBYAaMsCef8AlDzym5a9hX2oPLPgcfnuzl0e+vhIThRbE0LidhZeb7NmhNm1JhaV+pp+AzEEIXCGbiUam7fkOh5gvANPdOrII5JemX3WuAv1dlwXshhC4Q7IYcS26EgAUCwW/jWF0AgUAgEAgE7RBCFwgEAoHgAxBCFwgEAoHgAxBCFwgEAoHgAxBCFwgEAoHgAxBCFwgEAoHgA/gfw7WwpaCMH4cAAAAASUVORK5CYII=;" vertex="1" parent="C71Xn33zCeiyV5jr0XYg-1">
          <mxGeometry y="110" width="1450" height="1450" as="geometry" />
        </mxCell>
        <mxCell id="C71Xn33zCeiyV5jr0XYg-4" value="&lt;h1&gt;IntelliGrade&lt;/h1&gt;" style="text;html=1;strokeColor=none;fillColor=none;align=center;verticalAlign=middle;whiteSpace=wrap;rounded=0;" vertex="1" parent="C71Xn33zCeiyV5jr0XYg-1">
          <mxGeometry x="30" y="130" width="140" height="30" as="geometry" />
        </mxCell>
        <mxCell id="C71Xn33zCeiyV5jr0XYg-6" value="&lt;h1&gt;&lt;i&gt;Calculate Grade&lt;/i&gt;&lt;/h1&gt;" style="text;html=1;strokeColor=none;fillColor=none;align=center;verticalAlign=middle;whiteSpace=wrap;rounded=0;" vertex="1" parent="C71Xn33zCeiyV5jr0XYg-1">
          <mxGeometry x="30" y="190" width="190" height="30" as="geometry" />
        </mxCell>
        <mxCell id="C71Xn33zCeiyV5jr0XYg-7" value="Enter earned points" style="text;html=1;strokeColor=none;fillColor=none;align=center;verticalAlign=middle;whiteSpace=wrap;rounded=0;" vertex="1" parent="C71Xn33zCeiyV5jr0XYg-1">
          <mxGeometry x="30" y="220" width="110" height="30" as="geometry" />
        </mxCell>
        <mxCell id="C71Xn33zCeiyV5jr0XYg-8" value="" style="html=1;shadow=0;dashed=0;shape=mxgraph.bootstrap.rrect;rSize=5;strokeColor=#CED4DA;strokeWidth=1;fillColor=#E9ECEF;fontColor=#505050;whiteSpace=wrap;align=left;verticalAlign=middle;spacingLeft=10;fontSize=14;" vertex="1" parent="C71Xn33zCeiyV5jr0XYg-1">
          <mxGeometry x="30" y="250" width="340" height="40" as="geometry" />
        </mxCell>
        <mxCell id="C71Xn33zCeiyV5jr0XYg-9" value="" style="html=1;shadow=0;dashed=0;shape=mxgraph.bootstrap.rrect;rSize=5;strokeColor=#CED4DA;strokeWidth=1;fillColor=#E9ECEF;fontColor=#505050;whiteSpace=wrap;align=left;verticalAlign=middle;spacingLeft=10;fontSize=14;" vertex="1" parent="C71Xn33zCeiyV5jr0XYg-1">
          <mxGeometry x="30" y="330" width="340" height="40" as="geometry" />
        </mxCell>
        <mxCell id="C71Xn33zCeiyV5jr0XYg-10" value="Enter max points" style="text;html=1;strokeColor=none;fillColor=none;align=center;verticalAlign=middle;whiteSpace=wrap;rounded=0;" vertex="1" parent="C71Xn33zCeiyV5jr0XYg-1">
          <mxGeometry x="20" y="300" width="110" height="30" as="geometry" />
        </mxCell>
        <mxCell id="C71Xn33zCeiyV5jr0XYg-11" value="&lt;h1&gt;&lt;i&gt;Calculate needed grade to get wished average&lt;/i&gt;&lt;/h1&gt;" style="text;html=1;strokeColor=none;fillColor=none;align=center;verticalAlign=middle;whiteSpace=wrap;rounded=0;" vertex="1" parent="C71Xn33zCeiyV5jr0XYg-1">
          <mxGeometry x="30" y="410" width="530" height="30" as="geometry" />
        </mxCell>
        <mxCell id="C71Xn33zCeiyV5jr0XYg-12" value="Calculate" style="rounded=1;fillColor=#0057D8;strokeColor=none;html=1;whiteSpace=wrap;fontColor=#ffffff;align=center;verticalAlign=middle;fontStyle=0;fontSize=12;sketch=0;" vertex="1" parent="C71Xn33zCeiyV5jr0XYg-1">
          <mxGeometry x="32" y="453.5" width="86" height="33" as="geometry" />
        </mxCell>
        <mxCell id="C71Xn33zCeiyV5jr0XYg-13" value="&lt;h1&gt;&lt;label style=&quot;color: rgb(255, 255, 255); font-family: &amp;quot;Segoe UI&amp;quot;, Tahoma, Geneva, Verdana, sans-serif; font-size: medium; font-style: normal; font-variant-ligatures: normal; font-variant-caps: normal; font-weight: 400; letter-spacing: normal; orphans: 2; text-align: start; text-indent: 0px; text-transform: none; widows: 2; word-spacing: 0px; -webkit-text-stroke-width: 0px; text-decoration-thickness: initial; text-decoration-style: initial; text-decoration-color: initial;&quot; for=&quot;&quot;&gt;&lt;/label&gt;&lt;i&gt;Calculate grade increase or decrease in percentage (%)&lt;/i&gt;&lt;/h1&gt;" style="text;html=1;strokeColor=none;fillColor=none;align=center;verticalAlign=middle;whiteSpace=wrap;rounded=0;" vertex="1" parent="C71Xn33zCeiyV5jr0XYg-1">
          <mxGeometry x="30" y="540" width="640" height="30" as="geometry" />
        </mxCell>
        <mxCell id="C71Xn33zCeiyV5jr0XYg-14" value="Enter original grade" style="text;html=1;strokeColor=none;fillColor=none;align=center;verticalAlign=middle;whiteSpace=wrap;rounded=0;" vertex="1" parent="C71Xn33zCeiyV5jr0XYg-1">
          <mxGeometry x="32" y="570" width="110" height="30" as="geometry" />
        </mxCell>
        <mxCell id="C71Xn33zCeiyV5jr0XYg-15" value="" style="html=1;shadow=0;dashed=0;shape=mxgraph.bootstrap.rrect;rSize=5;strokeColor=#CED4DA;strokeWidth=1;fillColor=#E9ECEF;fontColor=#505050;whiteSpace=wrap;align=left;verticalAlign=middle;spacingLeft=10;fontSize=14;" vertex="1" parent="C71Xn33zCeiyV5jr0XYg-1">
          <mxGeometry x="30" y="600" width="340" height="40" as="geometry" />
        </mxCell>
        <mxCell id="C71Xn33zCeiyV5jr0XYg-16" value="Enter the raised grade" style="text;html=1;strokeColor=none;fillColor=none;align=center;verticalAlign=middle;whiteSpace=wrap;rounded=0;" vertex="1" parent="C71Xn33zCeiyV5jr0XYg-1">
          <mxGeometry x="30" y="660" width="128" height="30" as="geometry" />
        </mxCell>
        <mxCell id="C71Xn33zCeiyV5jr0XYg-17" value="" style="html=1;shadow=0;dashed=0;shape=mxgraph.bootstrap.rrect;rSize=5;strokeColor=#CED4DA;strokeWidth=1;fillColor=#E9ECEF;fontColor=#505050;whiteSpace=wrap;align=left;verticalAlign=middle;spacingLeft=10;fontSize=14;" vertex="1" parent="C71Xn33zCeiyV5jr0XYg-1">
          <mxGeometry x="30" y="690" width="340" height="40" as="geometry" />
        </mxCell>
        <mxCell id="C71Xn33zCeiyV5jr0XYg-18" value="&lt;h1&gt;&lt;label style=&quot;color: rgb(255, 255, 255); font-family: &amp;quot;Segoe UI&amp;quot;, Tahoma, Geneva, Verdana, sans-serif; font-size: medium; font-style: normal; font-variant-ligatures: normal; font-variant-caps: normal; font-weight: 400; letter-spacing: normal; orphans: 2; text-align: start; text-indent: 0px; text-transform: none; widows: 2; word-spacing: 0px; -webkit-text-stroke-width: 0px; text-decoration-thickness: initial; text-decoration-style: initial; text-decoration-color: initial;&quot; for=&quot;&quot;&gt;&lt;/label&gt;&lt;i&gt;Calculate older grade by increased percentage (%)&lt;/i&gt;&lt;/h1&gt;" style="text;html=1;strokeColor=none;fillColor=none;align=center;verticalAlign=middle;whiteSpace=wrap;rounded=0;" vertex="1" parent="C71Xn33zCeiyV5jr0XYg-1">
          <mxGeometry x="680" y="170" width="640" height="30" as="geometry" />
        </mxCell>
        <mxCell id="C71Xn33zCeiyV5jr0XYg-19" value="Enter received grade" style="text;html=1;strokeColor=none;fillColor=none;align=center;verticalAlign=middle;whiteSpace=wrap;rounded=0;" vertex="1" parent="C71Xn33zCeiyV5jr0XYg-1">
          <mxGeometry x="717" y="210" width="133" height="30" as="geometry" />
        </mxCell>
        <mxCell id="C71Xn33zCeiyV5jr0XYg-20" value="" style="html=1;shadow=0;dashed=0;shape=mxgraph.bootstrap.rrect;rSize=5;strokeColor=#CED4DA;strokeWidth=1;fillColor=#E9ECEF;fontColor=#505050;whiteSpace=wrap;align=left;verticalAlign=middle;spacingLeft=10;fontSize=14;" vertex="1" parent="C71Xn33zCeiyV5jr0XYg-1">
          <mxGeometry x="717" y="250" width="340" height="40" as="geometry" />
        </mxCell>
        <mxCell id="C71Xn33zCeiyV5jr0XYg-21" value="Enter raise percentage told by teacher" style="text;html=1;strokeColor=none;fillColor=none;align=center;verticalAlign=middle;whiteSpace=wrap;rounded=0;" vertex="1" parent="C71Xn33zCeiyV5jr0XYg-1">
          <mxGeometry x="717" y="320" width="213" height="30" as="geometry" />
        </mxCell>
        <mxCell id="C71Xn33zCeiyV5jr0XYg-22" value="" style="html=1;shadow=0;dashed=0;shape=mxgraph.bootstrap.rrect;rSize=5;strokeColor=#CED4DA;strokeWidth=1;fillColor=#E9ECEF;fontColor=#505050;whiteSpace=wrap;align=left;verticalAlign=middle;spacingLeft=10;fontSize=14;" vertex="1" parent="C71Xn33zCeiyV5jr0XYg-1">
          <mxGeometry x="717" y="350" width="340" height="40" as="geometry" />
        </mxCell>
        <mxCell id="C71Xn33zCeiyV5jr0XYg-54" value="" style="rounded=0;whiteSpace=wrap;html=1;" vertex="1" parent="C71Xn33zCeiyV5jr0XYg-1">
          <mxGeometry x="1220" y="450" width="220" height="160" as="geometry" />
        </mxCell>
        <mxCell id="C71Xn33zCeiyV5jr0XYg-62" value="Show &quot;Calculate Grade" style="strokeWidth=1;shadow=0;dashed=0;align=center;html=1;shape=mxgraph.mockup.forms.rrect;rSize=0;fillColor=#eeeeee;strokeColor=#999999;gradientColor=#cccccc;align=left;spacingLeft=4;fontSize=17;fontColor=#666666;labelPosition=right;" vertex="1" parent="C71Xn33zCeiyV5jr0XYg-1">
          <mxGeometry x="1233" y="477" width="15" height="15" as="geometry" />
        </mxCell>
        <mxCell id="C71Xn33zCeiyV5jr0XYg-63" value="Show &quot;Needed grade" style="strokeWidth=1;shadow=0;dashed=0;align=center;html=1;shape=mxgraph.mockup.forms.rrect;rSize=0;fillColor=#eeeeee;strokeColor=#999999;gradientColor=#cccccc;align=left;spacingLeft=4;fontSize=17;fontColor=#666666;labelPosition=right;" vertex="1" parent="C71Xn33zCeiyV5jr0XYg-1">
          <mxGeometry x="1233" y="520" width="15" height="15" as="geometry" />
        </mxCell>
        <UserObject label="" link="https://banner2.cleanpng.com/20180512/fhe/kisspng-computer-icons-symbol-enter-key-5af6fa5753a501.5426921915261353833426.jpg" id="C71Xn33zCeiyV5jr0XYg-24">
          <mxCell style="rounded=0;whiteSpace=wrap;html=1;" vertex="1" parent="1">
            <mxGeometry x="-740" y="370" width="520" height="390" as="geometry" />
          </mxCell>
        </UserObject>
        <mxCell id="C71Xn33zCeiyV5jr0XYg-25" value="" style="endArrow=classic;html=1;rounded=0;exitX=0;exitY=0.5;exitDx=0;exitDy=0;entryX=1;entryY=0.25;entryDx=0;entryDy=0;" edge="1" parent="1" source="C71Xn33zCeiyV5jr0XYg-12" target="C71Xn33zCeiyV5jr0XYg-24">
          <mxGeometry width="50" height="50" relative="1" as="geometry">
            <mxPoint x="-420" y="260" as="sourcePoint" />
            <mxPoint x="-370" y="210" as="targetPoint" />
          </mxGeometry>
        </mxCell>
        <mxCell id="C71Xn33zCeiyV5jr0XYg-26" value="Enter grade and then hit (enter)" style="html=1;shadow=0;dashed=0;shape=mxgraph.bootstrap.rrect;rSize=5;strokeColor=#CED4DA;strokeWidth=1;fillColor=#E9ECEF;fontColor=#505050;whiteSpace=wrap;align=left;verticalAlign=middle;spacingLeft=10;fontSize=14;" vertex="1" parent="1">
          <mxGeometry x="-720" y="430" width="340" height="40" as="geometry" />
        </mxCell>
        <mxCell id="C71Xn33zCeiyV5jr0XYg-27" value="Enter your grade" style="text;html=1;strokeColor=none;fillColor=none;align=center;verticalAlign=middle;whiteSpace=wrap;rounded=0;" vertex="1" parent="1">
          <mxGeometry x="-724" y="400" width="100" height="30" as="geometry" />
        </mxCell>
        <mxCell id="C71Xn33zCeiyV5jr0XYg-31" value="" style="shape=image;verticalLabelPosition=bottom;labelBackgroundColor=default;verticalAlign=top;aspect=fixed;imageAspect=0;image=data:image/png,iVBORw0KGgoAAAANSUhEUgAAAMgAAADICAYAAACtWK6eAAAMPElEQVR42u2dedBVZR3HP8/LK4imoIwkY6biGmaWmbin4kK5a+5LmeKoWWaO4zINA2MapZJTVrgxkvu4IIoLSiwqiGmIa2qm5QahLIILIPDtj+cY7wv3nHNB3nvPvef7mbnDzLkP8z7nd36fe87znGcJkjDGVKbFITDGghhjQYyxIMZYEGMsiDEWxBgLYowFMcaCGGMsiDEWxBgLYowFMcaCGGNBjLEgxlgQYyyIMRbEGJNCq0NQHkIImwN7NvhpzJD0kAUxHcFuwPAGP4fHgZoJ4kcsYyyIMRbEGAtiTC1xI90AzAWmFqxOGwJ9LIgpAtMk9StShUIIJwI3+RHLGLdBjLEgxlgQYyyIMcaCGGNBjLEgxlgQYyyIMRbEGAtijAUxxoIYY0GMMRbEGAtijAUxxoIYY0GMsSDGWBBjLIgxFsQYY0GMsSDGWBBjLIgxFsQYC2KMBTHGgpjlCSF0CSF0ciQsiFlRjh7AWOBLjkbj4x2mVq8cmwMPAls5Gr6DmPZy7AI8aTksiFlRjiOBccAGjoYFMe3lOA+4E1jT0XAbxCwToxPwe+AsR8OCmPZyrA3cDhzkaFgQ016OXsBoYAdHw4KY9nJsS+zG/aqj4Ua6aS9HP2CS5bAgZkU5fgg8BHRzNCyIaS/HYOBGYA1Hw20Qs0yMNYAbgJMcDQti2svRHbgH2NvR8COWaS/HJkljPE+ORcDPHTELUiY5dgSmAH1yis4G9kvaJsaClEKOQ4CJwIY5RV8D+kp6zFGzIGWR42xgJLBWTtHxwM6SXnfULEgZxGgJIQwF/lBFLIYDB0ia47QpD60llqMrcAtweE5RARdK+q3TxYKURY4NgPuBvjlFPwFOlDTSqWJByiLH1sQBh71zir4HHCLp704Tt0HKIseewOQq5JhG7KmyHBakNHIcBzwCrJ9T9D5gd0nvOD1MS0nkuDhpkHfJKToUOFzSx04N0/RtkBBCK/Bn4LScoouBn0i61ilRGJR2WS3I6pFjHeAuYP+conOBoySNLUHSLW2CPGixIF9cjq8ADwDfyCn6BnCQpH+UpSmWcrxrAevaaSXvLG6DVCnH9sQBh3lyTCL2VJVFDoBtU45/VMC6ds54HLYgqyhHf+BxYKOcojcD/SR9UBYzQgidgeNTvv5nAau8dsrxBRZk1RLgdOLb8XVyGn4DJZ0kaWHJGr1nARunfDehgPVdN+V4TXsYW5tAjABcBlyYU3QB8CNJd9SoaluEEObX+Rd4B+A7yWe7jIS7v4CXdr2U4/MsSPVydAFGAMfkFJ0JHCppSg2r90yDhPF6SfMKWK+eKcdnW5Dq5OgB3AvsnlP0RWJP1X8wyzMHuLSgdeuVcvx9t0Hy5dicOKYqT46Hgd0sRyrnSHq/oHVLay9NtyDZclS7Uc0fkzvHPHtQkUGSbiroNW4hfQXLdyxIeuCq2ahmCfAzSWdLWmIPVmACsKukwQWu48akj5ur6dNAawPJcR5wOdljceYDx0p6sEbVElDU7uKFxJECr7f5TJX0bANc7m0yfvwsyHJiVLtRzVvJI9ULtapb8vjmnaVWP19POf6mpM8syDI5qt2o5m/E2X//dW41BdunHH+51hVpKbAcvYDHqpDjTmAvy9FUfDvl+AsWhP9vVDOF/F2cLgWOkfSpc6o5CCGsm9EGmVbr+rQWMED9gLvJ3otjETBA0l+cUk3HLhk/3M+UWpBko5rryN6LYxZxWuzjzqWmZM+U4zMl/bu0j1hVblTzKnEOh+VoXvZJOT6pHpVpLYAY1W5UMw44UtJc51DTtj/WI448rkRdFgtvqXNAugNjqpDjeqC/5Wh69iV9qu34UglS5UY1S4HzJQ2o9QsiUxf6p7U/gOdL84iVbFRzP9l7cXxMXBf3XudNKR6vOgEHp3w9RpJKIUiyUc1tZO/F8S7xzfhUp05p2J/0QagP1atSLTWWo5qNap4l9lRZjnJxesrxxcR5Pc0ryEpsVDMK2EPSu86XUj1ebZbxePVoPTctaqnByXclrnB4bk7RK4AjvC5uKbmA9N6rEXWVtyPbPlVuVPMZcJak650npb17vELlheJmAJtIWlSv+rV24IlXs1HNXOLLv3FOldIyhPRVFK+upxwddgdJunHHkL0Xx3Rgb0mvOkdKe/fYB/hrxo/nppI+rGcdO6oN8gpxElMWXwa+7zQprRxdgWEZRS6vtxwdJoikj5JeiRty/vbQEMKfkpdEplxcBmyZ8t1bwO+KUMkO68WStFjSacDAnKJnAg8kE2VMOe4eBwDnZBT5RVEmwYVavMGvcp7HC8RFF95yCjW1HBsRXwanvTW/T9KhhalvrYa4hBD2I74PybpTzCAOMXnaqdSUcnQBJpLe7T8L2E7S9KLUuWZDTSQ9SpwtlvWWfENgQgjhCKdTU3It2e/EBhRJjpoKkkjyHHHO8YsZxdYC7gohnO98aqq7x0Dg5IwiV0saWbh612MUcQihG3AP6dMrP+c64lv2xU6xhhWjmv1bJhPfiS2yIMsC15nYDXxiTtFHibvQfuh0azg51ieOpcpa2+xtYCdJM4p4DnWbUZj8WpwM/Dqn6H7A5BDCpk65hpLjsORROkuOecSeyxlFPY+6zklX5GLgDOLCxGn0AZ4KIfR16hVejK1CCKOJ8356ZRRdnDwZPF/k8ynEsj+SrgEOJXuDxp7A+BDCUU7DQoqxcQjhGuAl4MCc4p8Bx0t6pPDnVa82SEqQdwRGE8dppfoEXCxpiNOyENdsa+B84so0nav4L3OAoyWNbYjzK5IgScA3I85B3jqn6HDgDK92UpdrFIhzyH8KfG8lnkSeAo6T9GbDnGvRBGnT+zGK/D0IvZhcba/LRsAJwABgi5X4rwuAwcAVjdZlX0hBkouxJnAT8IOcoq8AB0p6wym82q/B2sAeQD/iom7bk73DVyVGEQcfNuT1KawgbW7lV5I/n/194DBJk53WqxzrbsA3gW+1+XyNVZ91+iRwkaSJDR2XIgvS5uKdAwzNedZdAJwi6fYa1quF/N1260UrsB5xVufn/y7/aXu8+2r6u5OASySNaYofjkYQJEnGI4BbyN4TUMBASb+q4a+u2z9xidhRwJWSJjXTiTWMIElC7grcB/TIKToCOL2jx/ZYED4g9iYOa6SeqaYVJEnKLYkr7fXOKTqRuM7WbAuyWlmUxP82YKSkhc18sg0nSJKYPYnrbe2UU/Q1Yg/X6xZklVlC3PpsAnELgifKtLhfQwqSJOdaxC2iD84pOovYw/WEBcllIXGA4bPJZyrwvKRPyvoM2bCCJAnaibje75lVXPhTJd1SQ0E+TToN6vnLPyf5gZi93Cft2Aeee9NEgrRJ1AuIw+bzXmINkjS4RoJ09xyWxqelGU5C0m+IQyDyeq0GhRBuThYPMKYcgiSS3AYcUEWb4ARgbAihhy+/KY0giSQTgN2IK/NlsTswJYSwlVPAlEaQRJKXgZ2BaTlFtwCeDCF812lgSiNIIsl04hpceeOB1gceCSGc7FQwpREkkWQ+ccGA4TlFOwMjQgiXJKOHjWl+QRJJFks6FRhURfFfAre6h8uURpA2ogwGTiGupJHFscC4ZOs4Y8ohSCLJjcTVNubnFN2V2MO1jdPDtJTpZJNlZvYA3ssp2pvYw7WPU8SCUDJJniN2A7+UU7Q78HAI4cdOEwtSNkneJr5QHJ9TdA3ghhDCZe7hsiBlk+RDoD9waxXFLwLuSFZaMRakNJIsIq4uX80qjUcRN/fp6bSxIGWSRJIuIs4pWZJTvC9xEe0+Th0LUjZRhgGHAXmz5zYlbsewr6NmQcomyWhgL2BmTtFuxPWDBzhqzU1TzChc7UEJoXciwBcZDu8Zhb6DNO2d5A3iG/VJjoYFMZUlmUVcsPluR8OCmMqSLACOBq5yNCyIqSzJUknnEleYX+qIWBBTWZSrkrvJAkfDgpjKktydtEtmORoWxFSWZBKxh8s7WlkQkyLJa8AuwNOOhgUxlSWZSXzrPtrRsCCmsiSfEMdvDXM0LIipLMkSSWcS54x43I4FMSmiDCHOLVnkaFgQU1mSW4mzFOc6Gs2BR/N2RFBD2Bb4VzJUxVgQY/yIZYwFMcZYEGMsiDEWxBgLYowFMcaCGGNBjLEgxlgQYyyIMcaCGGNBjLEgxlgQYyyIMRbEGAtijAUxxoIYYyyIMRbEGAtijAUxpg78DxExz4TbVJu6AAAAAElFTkSuQmCC;" vertex="1" parent="1">
          <mxGeometry x="-290" y="430" width="40" height="40" as="geometry" />
        </mxCell>
        <mxCell id="C71Xn33zCeiyV5jr0XYg-32" value="" style="html=1;shadow=0;dashed=0;shape=mxgraph.bootstrap.rrect;rSize=5;strokeColor=#CED4DA;strokeWidth=1;fillColor=#E9ECEF;fontColor=#505050;whiteSpace=wrap;align=left;verticalAlign=middle;spacingLeft=10;fontSize=14;" vertex="1" parent="1">
          <mxGeometry x="-350" y="430" width="40" height="40" as="geometry" />
        </mxCell>
        <mxCell id="C71Xn33zCeiyV5jr0XYg-33" value="Weighting" style="text;html=1;strokeColor=none;fillColor=none;align=center;verticalAlign=middle;whiteSpace=wrap;rounded=0;" vertex="1" parent="1">
          <mxGeometry x="-350" y="400" width="40" height="30" as="geometry" />
        </mxCell>
        <mxCell id="C71Xn33zCeiyV5jr0XYg-34" value="" style="line;strokeWidth=1;rotatable=0;dashed=0;labelPosition=right;align=left;verticalAlign=middle;spacingTop=0;spacingLeft=6;points=[];portConstraint=eastwest;" vertex="1" parent="1">
          <mxGeometry x="-740" y="520" width="520" height="10" as="geometry" />
        </mxCell>
        <mxCell id="C71Xn33zCeiyV5jr0XYg-35" value="" style="html=1;shadow=0;dashed=0;shape=mxgraph.bootstrap.rrect;rSize=5;strokeColor=#CED4DA;strokeWidth=1;fillColor=#E9ECEF;fontColor=#505050;whiteSpace=wrap;align=left;verticalAlign=middle;spacingLeft=10;fontSize=14;" vertex="1" parent="1">
          <mxGeometry x="-720" y="540" width="340" height="40" as="geometry" />
        </mxCell>
        <mxCell id="C71Xn33zCeiyV5jr0XYg-36" value="" style="html=1;shadow=0;dashed=0;shape=mxgraph.bootstrap.rrect;rSize=5;strokeColor=#CED4DA;strokeWidth=1;fillColor=#E9ECEF;fontColor=#505050;whiteSpace=wrap;align=left;verticalAlign=middle;spacingLeft=10;fontSize=14;" vertex="1" parent="1">
          <mxGeometry x="-350" y="540" width="40" height="40" as="geometry" />
        </mxCell>
        <mxCell id="C71Xn33zCeiyV5jr0XYg-37" value="" style="html=1;shadow=0;dashed=0;shape=mxgraph.bootstrap.rrect;rSize=5;strokeColor=#CED4DA;strokeWidth=1;fillColor=#E9ECEF;fontColor=#505050;whiteSpace=wrap;align=left;verticalAlign=middle;spacingLeft=10;fontSize=14;" vertex="1" parent="1">
          <mxGeometry x="-350" y="595" width="40" height="40" as="geometry" />
        </mxCell>
        <mxCell id="C71Xn33zCeiyV5jr0XYg-38" value="" style="html=1;shadow=0;dashed=0;shape=mxgraph.bootstrap.rrect;rSize=5;strokeColor=#CED4DA;strokeWidth=1;fillColor=#E9ECEF;fontColor=#505050;whiteSpace=wrap;align=left;verticalAlign=middle;spacingLeft=10;fontSize=14;" vertex="1" parent="1">
          <mxGeometry x="-720" y="595" width="340" height="40" as="geometry" />
        </mxCell>
        <mxCell id="C71Xn33zCeiyV5jr0XYg-39" value="" style="html=1;shadow=0;dashed=0;shape=mxgraph.bootstrap.rrect;rSize=5;strokeColor=#CED4DA;strokeWidth=1;fillColor=#E9ECEF;fontColor=#505050;whiteSpace=wrap;align=left;verticalAlign=middle;spacingLeft=10;fontSize=14;" vertex="1" parent="1">
          <mxGeometry x="-350" y="650" width="40" height="40" as="geometry" />
        </mxCell>
        <mxCell id="C71Xn33zCeiyV5jr0XYg-40" value="" style="html=1;shadow=0;dashed=0;shape=mxgraph.bootstrap.rrect;rSize=5;strokeColor=#CED4DA;strokeWidth=1;fillColor=#E9ECEF;fontColor=#505050;whiteSpace=wrap;align=left;verticalAlign=middle;spacingLeft=10;fontSize=14;" vertex="1" parent="1">
          <mxGeometry x="-720" y="650" width="340" height="40" as="geometry" />
        </mxCell>
        <mxCell id="C71Xn33zCeiyV5jr0XYg-41" value="" style="html=1;shadow=0;dashed=0;shape=mxgraph.bootstrap.rrect;rSize=5;strokeColor=#CED4DA;strokeWidth=1;fillColor=#E9ECEF;fontColor=#505050;whiteSpace=wrap;align=left;verticalAlign=middle;spacingLeft=10;fontSize=14;" vertex="1" parent="1">
          <mxGeometry x="-350" y="700" width="40" height="40" as="geometry" />
        </mxCell>
        <mxCell id="C71Xn33zCeiyV5jr0XYg-42" value="" style="html=1;shadow=0;dashed=0;shape=mxgraph.bootstrap.rrect;rSize=5;strokeColor=#CED4DA;strokeWidth=1;fillColor=#E9ECEF;fontColor=#505050;whiteSpace=wrap;align=left;verticalAlign=middle;spacingLeft=10;fontSize=14;" vertex="1" parent="1">
          <mxGeometry x="-720" y="700" width="340" height="40" as="geometry" />
        </mxCell>
        <mxCell id="C71Xn33zCeiyV5jr0XYg-43" value="" style="verticalLabelPosition=bottom;verticalAlign=top;html=1;shape=mxgraph.basic.x" vertex="1" parent="1">
          <mxGeometry x="-290" y="550" width="20" height="20" as="geometry" />
        </mxCell>
        <mxCell id="C71Xn33zCeiyV5jr0XYg-44" value="" style="verticalLabelPosition=bottom;verticalAlign=top;html=1;shape=mxgraph.basic.x" vertex="1" parent="1">
          <mxGeometry x="-290" y="605" width="20" height="20" as="geometry" />
        </mxCell>
        <mxCell id="C71Xn33zCeiyV5jr0XYg-45" value="" style="verticalLabelPosition=bottom;verticalAlign=top;html=1;shape=mxgraph.basic.x" vertex="1" parent="1">
          <mxGeometry x="-290" y="660" width="20" height="20" as="geometry" />
        </mxCell>
        <mxCell id="C71Xn33zCeiyV5jr0XYg-46" value="" style="verticalLabelPosition=bottom;verticalAlign=top;html=1;shape=mxgraph.basic.x" vertex="1" parent="1">
          <mxGeometry x="-290" y="710" width="20" height="20" as="geometry" />
        </mxCell>
        <mxCell id="C71Xn33zCeiyV5jr0XYg-48" value="Finish" style="rounded=1;fillColor=#0057D8;strokeColor=none;html=1;whiteSpace=wrap;fontColor=#ffffff;align=center;verticalAlign=middle;fontStyle=0;fontSize=12;sketch=0;" vertex="1" parent="1">
          <mxGeometry x="-720" y="477" width="86" height="33" as="geometry" />
        </mxCell>
        <mxCell id="C71Xn33zCeiyV5jr0XYg-52" value="" style="verticalLabelPosition=bottom;shadow=0;dashed=0;align=center;html=1;verticalAlign=top;strokeWidth=1;shape=mxgraph.mockup.navigation.scrollBar;strokeColor=#999999;barPos=20;fillColor2=#99ddff;strokeColor2=none;direction=north;" vertex="1" parent="1">
          <mxGeometry x="-250" y="540" width="20" height="200" as="geometry" />
        </mxCell>
        <mxCell id="C71Xn33zCeiyV5jr0XYg-53" value="&amp;lt;- If you have entered all your grades" style="text;html=1;strokeColor=none;fillColor=none;align=center;verticalAlign=middle;whiteSpace=wrap;rounded=0;" vertex="1" parent="1">
          <mxGeometry x="-624" y="480" width="204" height="30" as="geometry" />
        </mxCell>
        <mxCell id="C71Xn33zCeiyV5jr0XYg-64" value="" style="shape=ellipse;labelPosition=right;align=left;strokeColor=none;fillColor=#666666;opacity=10;sketch=0;html=1;" vertex="1" parent="1">
          <mxGeometry x="-304" y="536" width="48" height="48" as="geometry" />
        </mxCell>
        <mxCell id="C71Xn33zCeiyV5jr0XYg-65" value="" style="dashed=0;labelPosition=right;align=left;shape=mxgraph.gmdl.checkbox;strokeColor=#666666;fillColor=none;strokeWidth=2;sketch=0;html=1;" vertex="1" parent="C71Xn33zCeiyV5jr0XYg-64">
          <mxGeometry x="16" y="16" width="16" height="16" as="geometry" />
        </mxCell>
        <mxCell id="C71Xn33zCeiyV5jr0XYg-66" value="" style="shape=ellipse;labelPosition=right;align=left;strokeColor=none;fillColor=#666666;opacity=10;sketch=0;html=1;" vertex="1" parent="1">
          <mxGeometry x="-304" y="591" width="48" height="48" as="geometry" />
        </mxCell>
        <mxCell id="C71Xn33zCeiyV5jr0XYg-67" value="" style="dashed=0;labelPosition=right;align=left;shape=mxgraph.gmdl.checkbox;strokeColor=#666666;fillColor=none;strokeWidth=2;sketch=0;html=1;" vertex="1" parent="C71Xn33zCeiyV5jr0XYg-66">
          <mxGeometry x="16" y="16" width="16" height="16" as="geometry" />
        </mxCell>
        <mxCell id="C71Xn33zCeiyV5jr0XYg-68" value="" style="shape=ellipse;labelPosition=right;align=left;strokeColor=none;fillColor=#666666;opacity=10;sketch=0;html=1;" vertex="1" parent="1">
          <mxGeometry x="-304" y="646" width="48" height="48" as="geometry" />
        </mxCell>
        <mxCell id="C71Xn33zCeiyV5jr0XYg-69" value="" style="dashed=0;labelPosition=right;align=left;shape=mxgraph.gmdl.checkbox;strokeColor=#666666;fillColor=none;strokeWidth=2;sketch=0;html=1;" vertex="1" parent="C71Xn33zCeiyV5jr0XYg-68">
          <mxGeometry x="16" y="16" width="16" height="16" as="geometry" />
        </mxCell>
        <mxCell id="C71Xn33zCeiyV5jr0XYg-70" value="" style="shape=ellipse;labelPosition=right;align=left;strokeColor=none;fillColor=#666666;opacity=10;sketch=0;html=1;" vertex="1" parent="1">
          <mxGeometry x="-304" y="696" width="48" height="48" as="geometry" />
        </mxCell>
        <mxCell id="C71Xn33zCeiyV5jr0XYg-71" value="" style="dashed=0;labelPosition=right;align=left;shape=mxgraph.gmdl.checkbox;strokeColor=#666666;fillColor=none;strokeWidth=2;sketch=0;html=1;" vertex="1" parent="C71Xn33zCeiyV5jr0XYg-70">
          <mxGeometry x="16" y="16" width="16" height="16" as="geometry" />
        </mxCell>
      </root>
    </mxGraphModel>
  </diagram>
</mxfile>
